<svg width="41" height="41" viewBox="0 0 41 41" fill="none" xmlns="http://www.w3.org/2000/svg">
<path d="M39.3984 41C38.5139 41 37.7969 40.283 37.7969 39.3984C37.7969 36.2193 35.2275 33.6328 32.0693 33.6328H30.712C27.5538 33.6328 24.9844 36.2193 24.9844 39.3984C24.9844 40.283 24.2674 41 23.3828 41C22.4983 41 21.7812 40.283 21.7812 39.3984C21.7812 34.4531 25.7876 30.4297 30.712 30.4297H32.0692C36.9937 30.4297 41 34.4531 41 39.3984C41 40.283 40.283 41 39.3984 41ZM38.1172 21.2207C38.1172 17.4675 35.0637 14.4141 31.3105 14.4141C27.5574 14.4141 24.5039 17.4675 24.5039 21.2207C24.5039 24.9739 27.5574 28.0273 31.3105 28.0273C35.0637 28.0273 38.1172 24.9739 38.1172 21.2207ZM34.9141 21.2207C34.9141 23.2077 33.2975 24.8242 31.3105 24.8242C29.3236 24.8242 27.707 23.2077 27.707 21.2207C27.707 19.2337 29.3236 17.6172 31.3105 17.6172C33.2975 17.6172 34.9141 19.2337 34.9141 21.2207ZM18.5781 39.3984C18.5781 38.5139 17.8611 37.7969 16.9766 37.7969H9.60769C6.07625 37.7969 3.20312 34.9238 3.20312 31.3923V9.60769C3.20312 6.07625 6.07625 3.20312 9.60769 3.20312H24.347C27.8786 3.20312 30.7516 6.07625 30.7516 9.60769C30.7516 10.4922 31.4686 11.2093 32.3532 11.2093C33.2377 11.2093 33.9547 10.4922 33.9547 9.60769C33.9548 4.31004 29.6448 0 24.3454 0H9.60769C4.31004 0 0 4.31004 0 9.60769V31.3922C0 36.69 4.31004 41 9.60769 41H16.9766C17.8611 41 18.5781 40.283 18.5781 39.3984ZM21.2207 18.1777C21.2207 17.2932 20.5037 16.5762 19.6191 16.5762H10.9707C10.0862 16.5762 9.36914 17.2932 9.36914 18.1777C9.36914 19.0623 10.0862 19.7793 10.9707 19.7793H19.6191C20.5037 19.7793 21.2207 19.0623 21.2207 18.1777ZM24.4238 12.0117C24.4238 11.1272 23.7068 10.4102 22.8223 10.4102H10.9707C10.0862 10.4102 9.36914 11.1272 9.36914 12.0117C9.36914 12.8963 10.0862 13.6133 10.9707 13.6133H22.8223C23.7068 13.6133 24.4238 12.8963 24.4238 12.0117ZM21.2207 30.4297C21.2207 29.5451 20.5037 28.8281 19.6191 28.8281H10.9707C10.0862 28.8281 9.36914 29.5451 9.36914 30.4297C9.36914 31.3142 10.0862 32.0312 10.9707 32.0312H19.6191C20.5037 32.0312 21.2207 31.3142 21.2207 30.4297ZM21.2207 24.2637C21.2207 23.3791 20.5037 22.6621 19.6191 22.6621H10.9707C10.0862 22.6621 9.36914 23.3791 9.36914 24.2637C9.36914 25.1482 10.0862 25.8652 10.9707 25.8652H19.6191C20.5037 25.8652 21.2207 25.1482 21.2207 24.2637Z" fill="black"/>
</svg>
