<svg width="30" height="30" viewBox="0 0 30 30" fill="none" xmlns="http://www.w3.org/2000/svg">
<rect width="29.4737" height="29.4737" rx="5" fill="#3365FF" fill-opacity="0.2"/>
<path d="M20.532 11.7972C20.5295 11.7594 20.5223 11.7223 20.5089 11.6834L20.4954 11.647C20.4727 11.5964 20.4444 11.5544 20.4088 11.5188L16.0166 7.12632C15.9814 7.09152 15.9397 7.06363 15.8839 7.03813C15.875 7.03439 15.8661 7.03126 15.8511 7.02627C15.8115 7.01304 15.7734 7.00515 15.7326 7.0033L15.7104 7H12.8086C11.7649 7 10.9162 7.84881 10.9162 8.89251V9.14696H9.89197C8.84877 9.14696 8 9.99617 8 11.0395V19.7929C8 20.8362 8.84881 21.6853 9.89197 21.6853H15.7277C16.771 21.6853 17.6197 20.8362 17.6197 19.7929V19.5381H18.6436C19.6873 19.5381 20.536 18.6894 20.536 17.6457V11.8261L20.532 11.7972ZM14.5522 17.339H13.0667V18.8245C13.0667 19.0535 12.8811 19.2387 12.6525 19.2387C12.4236 19.2387 12.2382 19.0535 12.2382 18.8245V17.339H10.7528C10.5239 17.339 10.3386 17.1537 10.3386 16.9248C10.3386 16.6962 10.5239 16.5105 10.7528 16.5105H12.2382V15.0251C12.2382 14.7965 12.4236 14.6108 12.6525 14.6108C12.8811 14.6108 13.0667 14.7965 13.0667 15.0251V16.5105H14.5522C14.7811 16.5105 14.9664 16.6962 14.9664 16.9248C14.9664 17.1537 14.7811 17.339 14.5522 17.339ZM14.2529 13.5394C13.6875 13.5394 13.2274 13.0794 13.2274 12.514V10.6271L16.1402 13.5394H14.2529ZM17.1691 11.3926C16.6038 11.3926 16.144 10.9326 16.144 10.3671V8.48008L19.0564 11.3928H17.1691V11.3926Z" fill="#3365FF"/>
</svg>
