<svg width="27" height="27" viewBox="0 0 27 27" fill="none" xmlns="http://www.w3.org/2000/svg">
<rect width="27" height="27" rx="3" fill="#C4C4C4" fill-opacity="0.2"/>
<path d="M18.8342 12.7374L15.4104 9.65536C14.9886 9.27601 14.3388 9.30888 13.9594 9.73205C13.5801 10.1532 13.6143 10.803 14.0361 11.1824L15.4693 12.4731H9.2449C8.67724 12.4731 8.21777 12.9326 8.21777 13.5002C8.21777 14.0679 8.67724 14.5274 9.2449 14.5274H15.4707L14.0354 15.8181C13.6136 16.1982 13.5794 16.8473 13.9587 17.2684C14.1621 17.4937 14.4422 17.6087 14.7229 17.6087C14.9681 17.6087 15.2139 17.5218 15.4097 17.3451L18.8335 14.2644C19.0499 14.07 19.1738 13.7919 19.1738 13.5009C19.1738 13.2099 19.0499 12.9319 18.8342 12.7374Z" fill="#424242"/>
</svg>
