<svg width="23" height="23" viewBox="0 0 23 23" fill="none" xmlns="http://www.w3.org/2000/svg">
<rect width="23" height="23" rx="3" fill="#C4C4C4" fill-opacity="0.2"/>
<path d="M16.0436 10.8504L13.1271 8.22489C12.7677 7.90174 12.2142 7.92974 11.891 8.29022C11.5679 8.64896 11.597 9.20251 11.9564 9.52567L13.1772 10.6252H7.87496C7.3914 10.6252 7 11.0166 7 11.5002C7 11.9837 7.3914 12.3751 7.87496 12.3751H13.1784L11.9558 13.4747C11.5965 13.7984 11.5673 14.3514 11.8904 14.7101C12.0637 14.902 12.3023 15 12.5414 15C12.7502 15 12.9596 14.9259 13.1265 14.7754L16.043 12.1511C16.2273 11.9855 16.3329 11.7486 16.3329 11.5007C16.3329 11.2528 16.2273 11.016 16.0436 10.8504Z" fill="#424242"/>
</svg>
