<svg width="11" height="10" viewBox="0 0 11 10" fill="none" xmlns="http://www.w3.org/2000/svg">
<path d="M10.5703 6.48828C10.8076 6.48828 11 6.29591 11 6.05859V3.26562C11 2.31791 10.229 1.54688 9.28125 1.54688H8.62896C8.44495 1.54688 8.28147 1.42985 8.22218 1.25563L8.09218 0.873705C7.91429 0.351119 7.42388 0 6.87186 0H4.12678C3.58546 0 3.09822 0.342096 2.91438 0.851232L2.76564 1.26313C2.70435 1.43284 2.54195 1.54688 2.3615 1.54688H1.71875C0.771031 1.54688 0 2.31791 0 3.26562V8.20703C0 9.15475 0.771031 9.92578 1.71875 9.92578H9.28125C10.229 9.92578 11 9.15475 11 8.20703C11 7.96971 10.8076 7.77734 10.5703 7.77734C10.333 7.77734 10.1406 7.96971 10.1406 8.20703C10.1406 8.68089 9.75511 9.06641 9.28125 9.06641H1.71875C1.24489 9.06641 0.859375 8.68089 0.859375 8.20703V3.26562C0.859375 2.79177 1.24489 2.40625 1.71875 2.40625H2.3615C2.90282 2.40625 3.39006 2.06415 3.5739 1.55502L3.72264 1.14312C3.78394 0.973414 3.94634 0.859375 4.12678 0.859375H6.87186C7.05588 0.859375 7.21933 0.976422 7.27865 1.15062L7.40865 1.53254C7.58652 2.05513 8.07692 2.40625 8.62896 2.40625H9.28125C9.75511 2.40625 10.1406 2.79177 10.1406 3.26562V6.05859C10.1406 6.29591 10.333 6.48828 10.5703 6.48828Z" fill="black" fill-opacity="0.5"/>
<path d="M5.52148 2.83594C4.04067 2.83594 2.83594 4.04067 2.83594 5.52148C2.83594 7.0023 4.04067 8.20703 5.52148 8.20703C7.0023 8.20703 8.20703 7.0023 8.20703 5.52148C8.20703 4.04067 7.0023 2.83594 5.52148 2.83594ZM5.52148 7.34766C4.51453 7.34766 3.69531 6.52844 3.69531 5.52148C3.69531 4.51453 4.51453 3.69531 5.52148 3.69531C6.52844 3.69531 7.34766 4.51453 7.34766 5.52148C7.34766 6.52844 6.52844 7.34766 5.52148 7.34766Z" fill="black" fill-opacity="0.5"/>
</svg>
