<svg width="30" height="30" viewBox="0 0 30 30" fill="none" xmlns="http://www.w3.org/2000/svg">
<rect width="29.4737" height="29.4737" rx="5" fill="#3365FF" fill-opacity="0.2"/>
<path d="M19.8127 7.37729C19.5895 7.27444 19.3265 7.31446 19.1439 7.479L18.1804 8.33206C18.1542 8.35538 18.1147 8.35524 18.0886 8.33178L16.7777 7.15933C16.5406 6.94689 16.1817 6.94689 15.9446 7.15933L14.6349 8.3307C14.6086 8.35424 14.5688 8.35424 14.5424 8.3307L13.2326 7.15933C12.9955 6.94692 12.6366 6.94692 12.3995 7.15933L11.0884 8.33178C11.0622 8.35524 11.0225 8.35535 10.9962 8.33202L10.0318 7.479C9.77602 7.25149 9.38418 7.27444 9.15668 7.53027C9.05466 7.64499 8.99884 7.79349 9.00002 7.94699V20.7383C8.99773 21.0812 9.27383 21.361 9.61672 21.3633C9.77032 21.3644 9.91882 21.3084 10.0336 21.2063L10.997 20.3533C11.0232 20.3299 11.0628 20.3301 11.0888 20.3535L12.3997 21.526C12.6368 21.7384 12.9957 21.7384 13.2328 21.526L14.5427 20.3546C14.569 20.3311 14.6088 20.3311 14.6352 20.3546L15.945 21.526C16.1821 21.7383 16.541 21.7383 16.7781 21.526L18.0892 20.3535C18.1155 20.33 18.1551 20.3299 18.1815 20.3533L19.1458 21.2063C19.4018 21.4337 19.7936 21.4106 20.021 21.1546C20.1228 21.04 20.1786 20.8917 20.1774 20.7383V7.94699C20.1807 7.70126 20.0373 7.47719 19.8127 7.37729ZM11.2982 11.9822H14.7551C14.9085 11.9822 15.0328 12.1066 15.0328 12.2599C15.0328 12.4133 14.9085 12.5376 14.7551 12.5376H11.2982C11.1449 12.5376 11.0205 12.4133 11.0205 12.2599C11.0205 12.1066 11.1449 11.9822 11.2982 11.9822ZM17.8792 16.7031H11.2982C11.1449 16.7031 11.0205 16.5788 11.0205 16.4254C11.0205 16.2721 11.1449 16.1477 11.2982 16.1477H17.8792C18.0326 16.1477 18.1569 16.2721 18.1569 16.4254C18.1569 16.5788 18.0326 16.7031 17.8792 16.7031ZM17.8792 14.6204H11.2982C11.1449 14.6204 11.0205 14.496 11.0205 14.3427C11.0205 14.1893 11.1449 14.065 11.2982 14.065H17.8792C18.0326 14.065 18.1569 14.1893 18.1569 14.3427C18.1569 14.496 18.0326 14.6204 17.8792 14.6204Z" fill="#3365FF"/>
</svg>
