<svg width="76" height="76" viewBox="0 0 76 76" fill="none" xmlns="http://www.w3.org/2000/svg">
<g clip-path="url(#clip0)">
<path d="M0 37.9996C0 17.0363 16.9752 0.0378436 37.9293 -0.000425332C58.7505 -0.0381145 75.8237 16.853 75.9983 37.6737C76.0887 48.4209 71.715 58.1459 64.6225 65.1114C64.5083 65.2239 64.3256 65.2239 64.2096 65.1132C57.3914 58.6156 48.1622 54.6246 38 54.6246C27.8378 54.6246 18.6086 58.6156 11.7903 65.1132C11.6744 65.2234 11.4917 65.2239 11.3775 65.1114C4.35629 58.2166 0 48.6175 0 37.9996H0Z" fill="#FDBF43"/>
<path d="M64.7188 8.16406V65.0179C57.8541 71.8066 48.4173 76 38 76C27.5827 76 18.1459 71.8066 11.2812 65.0179V8.16406C11.2812 6.93423 12.278 5.9375 13.5078 5.9375H62.4922C63.722 5.9375 64.7188 6.93423 64.7188 8.16406Z" fill="#1F3595"/>
<path d="M52.076 73.3044C47.7227 75.0421 42.9738 76 38 76C33.1282 76 28.4722 75.081 24.1918 73.4099H51.8134C51.9015 73.3757 51.9885 73.3397 52.076 73.3044ZM17.0703 64.5036H53.6973C54.1687 64.5036 54.5508 64.8857 54.5508 65.3571V66.6189C54.5508 67.0903 54.1687 67.4724 53.6973 67.4724H17.0703C16.6604 67.4724 16.3281 67.8052 16.3281 68.2146V69.2154C16.9416 69.6421 17.569 70.0503 18.2085 70.4411H53.6973C54.1687 70.4411 54.5508 70.8232 54.5508 71.2946V72.2125C58.3319 70.3797 61.7639 67.9403 64.7188 65.0179V62.3438H17.0703C16.6604 62.3438 16.3281 62.676 16.3281 63.0859V63.7614C16.3281 64.1714 16.6604 64.5036 17.0703 64.5036ZM17.0703 43.5415H64.7188V59.375H17.0703C16.6604 59.375 16.3281 59.0428 16.3281 58.6328V56.5547C16.3281 56.1447 16.6604 55.8125 17.0703 55.8125H27.3496C27.821 55.8125 28.2031 55.4304 28.2031 54.959V53.6973C28.2031 53.2259 27.821 52.8438 27.3496 52.8438H17.0703C16.6604 52.8438 16.3281 52.5115 16.3281 52.1016V50.6172C16.3281 50.2072 16.6604 49.875 17.0703 49.875H27.3496C27.821 49.875 28.2031 49.4929 28.2031 49.0215V47.7598C28.2031 47.2884 27.821 46.9062 27.3496 46.9062H17.0703C16.6604 46.9062 16.3281 46.574 16.3281 46.1641V44.2837C16.3281 43.8743 16.6604 43.5415 17.0703 43.5415ZM59.375 55.2825C59.375 55.9853 59.945 56.5547 60.6472 56.5547C61.3499 56.5547 61.9193 55.9853 61.9193 55.2825C61.9193 54.5798 61.3499 54.0104 60.6472 54.0104C59.945 54.0104 59.375 54.5798 59.375 55.2825ZM52.3242 55.7012C52.3242 56.1726 52.7063 56.5547 53.1777 56.5547H53.6973C54.1687 56.5547 54.5508 56.1726 54.5508 55.7012V47.0176C54.5508 46.5462 54.1687 46.1641 53.6973 46.1641H53.1777C52.7063 46.1641 52.3242 46.5462 52.3242 47.0176V55.7012ZM47.4072 55.7012C47.4072 56.1726 47.7893 56.5547 48.2607 56.5547H48.7803C49.2517 56.5547 49.6338 56.1726 49.6338 55.7012V47.0176C49.6338 46.5462 49.2517 46.1641 48.7803 46.1641H48.2607C47.7893 46.1641 47.4072 46.5462 47.4072 47.0176V55.7012ZM42.4902 55.7012C42.4902 56.1726 42.8723 56.5547 43.3438 56.5547H43.8633C44.3347 56.5547 44.7168 56.1726 44.7168 55.7012V47.0176C44.7168 46.5462 44.3347 46.1641 43.8633 46.1641H43.3438C42.8723 46.1641 42.4902 46.5462 42.4902 47.0176V55.7012ZM37.5732 55.7012C37.5732 56.1726 37.9554 56.5547 38.4268 56.5547H38.9463C39.4177 56.5547 39.7998 56.1726 39.7998 55.7012V47.0176C39.7998 46.5462 39.4177 46.1641 38.9463 46.1641H38.4268C37.9554 46.1641 37.5732 46.5462 37.5732 47.0176V55.7012ZM32.6562 55.7012C32.6562 56.1726 33.0384 56.5547 33.5098 56.5547H34.0293C34.5007 56.5547 34.8828 56.1726 34.8828 55.7012V47.0176C34.8828 46.5462 34.5007 46.1641 34.0293 46.1641H33.5098C33.0384 46.1641 32.6562 46.5462 32.6562 47.0176V55.7012ZM17.0703 24.7398H64.7188V40.5733H17.0703C16.6604 40.5733 16.3281 40.2405 16.3281 39.8311V37.8516C16.3281 37.4416 16.6604 37.1094 17.0703 37.1094H27.3496C27.821 37.1094 28.2031 36.7273 28.2031 36.2559V34.9941C28.2031 34.5227 27.821 34.1406 27.3496 34.1406H17.0703C16.6604 34.1406 16.3281 33.8084 16.3281 33.3984V31.9141C16.3281 31.5041 16.6604 31.1719 17.0703 31.1719H27.3496C27.821 31.1719 28.2031 30.7898 28.2031 30.3184V29.0566C28.2031 28.5852 27.821 28.2031 27.3496 28.2031H17.0703C16.6604 28.2031 16.3281 27.8709 16.3281 27.4609V25.482C16.3281 25.072 16.6604 24.7398 17.0703 24.7398ZM59.375 36.5794C59.375 37.2822 59.945 37.8516 60.6472 37.8516C61.3499 37.8516 61.9193 37.2822 61.9193 36.5794C61.9193 35.8766 61.3499 35.3073 60.6472 35.3073C59.945 35.3073 59.375 35.8766 59.375 36.5794ZM52.3242 36.998C52.3242 37.4695 52.7063 37.8516 53.1777 37.8516H53.6973C54.1687 37.8516 54.5508 37.4695 54.5508 36.998V28.3145C54.5508 27.843 54.1687 27.4609 53.6973 27.4609H53.1777C52.7063 27.4609 52.3242 27.843 52.3242 28.3145V36.998ZM47.4072 36.998C47.4072 37.4695 47.7893 37.8516 48.2607 37.8516H48.7803C49.2517 37.8516 49.6338 37.4695 49.6338 36.998V28.3145C49.6338 27.843 49.2517 27.4609 48.7803 27.4609H48.2607C47.7893 27.4609 47.4072 27.843 47.4072 28.3145V36.998ZM42.4902 36.998C42.4902 37.4695 42.8723 37.8516 43.3438 37.8516H43.8633C44.3347 37.8516 44.7168 37.4695 44.7168 36.998V28.3145C44.7168 27.843 44.3347 27.4609 43.8633 27.4609H43.3438C42.8723 27.4609 42.4902 27.843 42.4902 28.3145V36.998ZM37.5732 36.998C37.5732 37.4695 37.9554 37.8516 38.4268 37.8516H38.9463C39.4177 37.8516 39.7998 37.4695 39.7998 36.998V28.3145C39.7998 27.843 39.4177 27.4609 38.9463 27.4609H38.4268C37.9554 27.4609 37.5732 27.843 37.5732 28.3145V36.998ZM32.6562 36.998C32.6562 37.4695 33.0384 37.8516 33.5098 37.8516H34.0293C34.5007 37.8516 34.8828 37.4695 34.8828 36.998V28.3145C34.8828 27.843 34.5007 27.4609 34.0293 27.4609H33.5098C33.0384 27.4609 32.6562 27.843 32.6562 28.3145V36.998ZM64.7188 8.16406V21.771H17.0703C16.6604 21.771 16.3281 21.4388 16.3281 21.0288V19.2969C16.3281 18.8869 16.6604 18.5547 17.0703 18.5547H27.3496C27.821 18.5547 28.2031 18.1726 28.2031 17.7012V16.4395C28.2031 15.968 27.821 15.5859 27.3496 15.5859H17.0703C16.6604 15.5859 16.3281 15.2537 16.3281 14.8438V13.3594C16.3281 12.9494 16.6604 12.6172 17.0703 12.6172H27.3496C27.821 12.6172 28.2031 12.2351 28.2031 11.7637V10.502C28.2031 10.0305 27.821 9.64844 27.3496 9.64844H17.0703C16.6604 9.64844 16.3281 9.31619 16.3281 8.90625V8.16406C16.3281 6.93423 17.3249 5.9375 18.5547 5.9375H62.4922C63.722 5.9375 64.7188 6.93423 64.7188 8.16406ZM34.8828 9.75977C34.8828 9.28836 34.5007 8.90625 34.0293 8.90625H33.5098C33.0384 8.90625 32.6562 9.28836 32.6562 9.75977V18.4434C32.6562 18.9148 33.0384 19.2969 33.5098 19.2969H34.0293C34.5007 19.2969 34.8828 18.9148 34.8828 18.4434V9.75977ZM39.7998 9.75977C39.7998 9.28836 39.4177 8.90625 38.9463 8.90625H38.4268C37.9554 8.90625 37.5732 9.28836 37.5732 9.75977V18.4434C37.5732 18.9148 37.9554 19.2969 38.4268 19.2969H38.9463C39.4177 19.2969 39.7998 18.9148 39.7998 18.4434V9.75977ZM44.7168 9.75977C44.7168 9.28836 44.3347 8.90625 43.8633 8.90625H43.3438C42.8723 8.90625 42.4902 9.28836 42.4902 9.75977V18.4434C42.4902 18.9148 42.8723 19.2969 43.3438 19.2969H43.8633C44.3347 19.2969 44.7168 18.9148 44.7168 18.4434V9.75977ZM49.6338 9.75977C49.6338 9.28836 49.2517 8.90625 48.7803 8.90625H48.2607C47.7893 8.90625 47.4072 9.28836 47.4072 9.75977V18.4434C47.4072 18.9148 47.7893 19.2969 48.2607 19.2969H48.7803C49.2517 19.2969 49.6338 18.9148 49.6338 18.4434V9.75977ZM54.5508 9.75977C54.5508 9.28836 54.1687 8.90625 53.6973 8.90625H53.1777C52.7063 8.90625 52.3242 9.28836 52.3242 9.75977V18.4434C52.3242 18.9148 52.7063 19.2969 53.1777 19.2969H53.6973C54.1687 19.2969 54.5508 18.9148 54.5508 18.4434V9.75977ZM61.9199 18.0247C61.9199 17.322 61.3499 16.7526 60.6472 16.7526C59.945 16.7526 59.375 17.322 59.375 18.0247C59.375 18.7275 59.945 19.2969 60.6472 19.2969C61.3499 19.2969 61.9199 18.7275 61.9199 18.0247Z" fill="#4F66CF"/>
<path d="M61.9199 65.0344C61.9199 65.7371 61.3499 66.3065 60.6472 66.3065C59.945 66.3065 59.375 65.7365 59.375 65.0344C59.375 64.3316 59.945 63.7616 60.6472 63.7616C61.3499 63.7616 61.9199 64.3316 61.9199 65.0344ZM60.6472 15.3739C61.3499 15.3739 61.9193 14.8045 61.9193 14.1017C61.9193 13.399 61.3499 12.8296 60.6472 12.8296C59.9444 12.8296 59.375 13.399 59.375 14.1017C59.375 14.8045 59.945 15.3739 60.6472 15.3739ZM60.6472 31.3843C59.9444 31.3843 59.375 31.9537 59.375 32.6564C59.375 33.3592 59.945 33.9286 60.6472 33.9286C61.3499 33.9286 61.9193 33.3592 61.9193 32.6564C61.9199 31.9537 61.3499 31.3843 60.6472 31.3843ZM60.6472 46.1642C59.9444 46.1642 59.375 46.7342 59.375 47.4364C59.375 48.1392 59.945 48.7086 60.6472 48.7086C61.3499 48.7086 61.9193 48.1392 61.9193 47.4364C61.9193 46.7342 61.3499 46.1642 60.6472 46.1642Z" fill="#89E9D9"/>
<path d="M59.375 10.1784C59.375 9.47565 59.945 8.90625 60.6472 8.90625C61.3499 8.90625 61.9193 9.47623 61.9193 10.1784C61.9193 10.8812 61.3499 11.4506 60.6472 11.4506C59.945 11.4511 59.375 10.8812 59.375 10.1784ZM59.375 68.9568C59.375 69.1023 59.4005 69.242 59.4457 69.3719C60.1143 68.9138 60.7689 68.4361 61.4062 67.9374C61.1939 67.7791 60.9319 67.6846 60.6472 67.6846C59.945 67.6846 59.375 68.2546 59.375 68.9568ZM60.6472 50.0872C59.9444 50.0872 59.375 50.6566 59.375 51.3594C59.375 52.0621 59.945 52.6315 60.6472 52.6315C61.3499 52.6315 61.9193 52.0621 61.9193 51.3594C61.9199 50.6566 61.3499 50.0872 60.6472 50.0872ZM60.6472 27.4609C59.9444 27.4609 59.375 28.0309 59.375 28.7331C59.375 29.4359 59.945 30.0052 60.6472 30.0052C61.3499 30.0052 61.9193 29.4359 61.9193 28.7331C61.9193 28.0309 61.3499 27.4609 60.6472 27.4609Z" fill="#0AB59E"/>
</g>
<defs>
<clipPath id="clip0">
<rect width="76" height="76" fill="white"/>
</clipPath>
</defs>
</svg>
