<svg width="20" height="20" viewBox="0 0 20 20" fill="none" xmlns="http://www.w3.org/2000/svg">
<path d="M15.3125 0H4.6875C2.10281 0 0 2.10281 0 4.6875V15.3125C0 17.8972 2.10281 20 4.6875 20H15.3125C17.8972 20 20 17.8972 20 15.3125V4.6875C20 2.10281 17.8972 0 15.3125 0ZM18.4375 15.3125C18.4375 17.0356 17.0356 18.4375 15.3125 18.4375H4.6875C2.96438 18.4375 1.5625 17.0356 1.5625 15.3125V4.6875C1.5625 2.96438 2.96438 1.5625 4.6875 1.5625H15.3125C17.0356 1.5625 18.4375 2.96438 18.4375 4.6875V15.3125ZM10.7812 4.21875V15.8203C10.7812 16.2518 10.4315 16.6016 10 16.6016C9.56852 16.6016 9.21875 16.2518 9.21875 15.8203V4.21875C9.21875 3.78727 9.56852 3.4375 10 3.4375C10.4315 3.4375 10.7812 3.78727 10.7812 4.21875ZM7.77344 6.95312V15.8203C7.77344 16.2518 7.42367 16.6016 6.99219 16.6016C6.5607 16.6016 6.21094 16.2518 6.21094 15.8203V6.95312C6.21094 6.52164 6.5607 6.17188 6.99219 6.17188C7.42367 6.17188 7.77344 6.52164 7.77344 6.95312ZM4.72656 12.5391V15.8203C4.72656 16.2518 4.3768 16.6016 3.94531 16.6016C3.51383 16.6016 3.16406 16.2518 3.16406 15.8203V12.5391C3.16406 12.1076 3.51383 11.7578 3.94531 11.7578C4.3768 11.7578 4.72656 12.1076 4.72656 12.5391ZM13.8281 9.29688V15.8203C13.8281 16.2518 13.4784 16.6016 13.0469 16.6016C12.6154 16.6016 12.2656 16.2518 12.2656 15.8203V9.29688C12.2656 8.86539 12.6154 8.51562 13.0469 8.51562C13.4784 8.51562 13.8281 8.86539 13.8281 9.29688ZM16.875 14.1016V15.8203C16.875 16.2518 16.5252 16.6016 16.0938 16.6016C15.6623 16.6016 15.3125 16.2518 15.3125 15.8203V14.1016C15.3125 13.6701 15.6623 13.3203 16.0938 13.3203C16.5252 13.3203 16.875 13.6701 16.875 14.1016Z" fill="white" fill-opacity="0.5"/>
</svg>
