<svg width="23" height="23" viewBox="0 0 23 23" fill="none" xmlns="http://www.w3.org/2000/svg">
<rect width="23" height="23" rx="3" fill="#3365FF"/>
<path d="M13.9492 10.5859C13.9492 10.3055 13.7219 10.0781 13.4414 10.0781H8.21094C7.93047 10.0781 7.70312 10.3055 7.70312 10.5859C7.70312 10.8664 7.93047 11.0938 8.21094 11.0938H13.4414C13.7219 11.0938 13.9492 10.8664 13.9492 10.5859Z" fill="white" fill-opacity="0.5"/>
<path d="M8.21094 12.1094C7.93047 12.1094 7.70312 12.3367 7.70312 12.6172C7.70312 12.8977 7.93047 13.125 8.21094 13.125H11.3876C11.668 13.125 11.8954 12.8977 11.8954 12.6172C11.8954 12.3367 11.668 12.1094 11.3876 12.1094H8.21094Z" fill="white" fill-opacity="0.5"/>
<path d="M9.40441 16.9844H7.70605C7.14604 16.9844 6.69043 16.5288 6.69043 15.9688V7.03125C6.69043 6.47123 7.14604 6.01562 7.70605 6.01562H13.9493C14.5093 6.01562 14.965 6.47123 14.965 7.03125V10.1543C14.965 10.4348 15.1923 10.6621 15.4728 10.6621C15.7532 10.6621 15.9806 10.4348 15.9806 10.1543V7.03125C15.9806 5.91122 15.0694 5 13.9493 5H7.70605C6.58602 5 5.6748 5.91122 5.6748 7.03125V15.9688C5.6748 17.0888 6.58602 18 7.70605 18H9.40441C9.68487 18 9.91222 17.7727 9.91222 17.4922C9.91222 17.2117 9.68487 16.9844 9.40441 16.9844Z" fill="white"/>
<path d="M16.88 12.3525C16.286 11.7585 15.3195 11.7585 14.7259 12.3521L11.938 15.1339C11.8787 15.193 11.8351 15.2658 11.8107 15.3458L11.2036 17.3447C11.1497 17.5219 11.1966 17.7143 11.326 17.8469C11.4229 17.9462 11.5545 18.0001 11.6895 18.0001C11.7347 18.0001 11.7803 17.9941 11.825 17.9817L13.8747 17.4139C13.959 17.3905 14.0359 17.3458 14.0979 17.2839L16.88 14.507C17.474 13.913 17.474 12.9466 16.88 12.3525ZM13.4749 16.4708L12.4437 16.7564L12.7455 15.7629L14.6267 13.8859L15.345 14.6042L13.4749 16.4708ZM16.1622 13.7886L16.0638 13.8868L15.3457 13.1686L15.4437 13.0707C15.6417 12.8727 15.9639 12.8727 16.1619 13.0707C16.3599 13.2687 16.3599 13.5909 16.1622 13.7886Z" fill="white"/>
<path d="M13.4414 8.04688H8.21094C7.93047 8.04688 7.70312 8.27422 7.70312 8.55469C7.70312 8.83515 7.93047 9.0625 8.21094 9.0625H13.4414C13.7219 9.0625 13.9492 8.83515 13.9492 8.55469C13.9492 8.27422 13.7219 8.04688 13.4414 8.04688Z" fill="white" fill-opacity="0.5"/>
</svg>
