<svg width="23" height="23" viewBox="0 0 23 23" fill="none" xmlns="http://www.w3.org/2000/svg">
<rect width="23" height="23" rx="3" fill="#C4C4C4" fill-opacity="0.2"/>
<path d="M16.8669 15.2241L14.9433 13.3004C16.1121 12.4206 16.8682 11.3331 16.9205 11.2569C17.0266 11.1021 17.0266 10.8979 16.9205 10.7431C16.8318 10.6137 14.7187 7.57506 12.0001 7.57506C11.2161 7.57509 10.4827 7.82797 9.83351 8.19063L7.77597 6.13315C7.59848 5.95563 7.31069 5.9556 7.13315 6.13315C6.9556 6.31069 6.95563 6.59845 7.13315 6.77597L9.05675 8.69954L14.6882 14.331L16.2241 15.8668C16.3129 15.9556 16.4292 16 16.5455 16C16.6618 16 16.7782 15.9556 16.8669 15.8668C17.0445 15.6893 17.0444 15.4016 16.8669 15.2241Z" fill="black"/>
<path d="M7.07956 10.7432C6.97347 10.8981 6.9735 11.1021 7.07956 11.257C7.16816 11.3864 9.28104 14.4251 12.0001 14.4251C12.4445 14.4251 12.8727 14.3436 13.2785 14.2071L8.35901 9.2876C7.59371 10.0027 7.1205 10.6834 7.07956 10.7432Z" fill="black"/>
</svg>
