<svg width="17" height="20" viewBox="0 0 17 20" fill="none" xmlns="http://www.w3.org/2000/svg">
<path d="M5.58594 9.17969C6.12528 9.17969 6.5625 8.74247 6.5625 8.20312C6.5625 7.66378 6.12528 7.22656 5.58594 7.22656C5.0466 7.22656 4.60938 7.66378 4.60938 8.20312C4.60938 8.74247 5.0466 9.17969 5.58594 9.17969Z" fill="white"/>
<path d="M11.8758 20H4.68668C2.10242 20 0 17.8976 0 15.3133V4.68668C0 2.10242 2.10242 0 4.68668 0H11.8758C14.4601 0 16.5625 2.10242 16.5625 4.68668V15.3133C16.5625 17.8976 14.4601 20 11.8758 20ZM4.68668 1.5625C2.96402 1.5625 1.5625 2.96402 1.5625 4.68668V15.3133C1.5625 17.036 2.96402 18.4375 4.68668 18.4375H11.8758C13.5985 18.4375 15 17.036 15 15.3133V4.68668C15 2.96402 13.5985 1.5625 11.8758 1.5625H4.68668Z" fill="white"/>
<path d="M12.6172 7.96875H11.2891C9.78133 7.96875 8.55469 6.74211 8.55469 5.23438V3.90625C8.55469 3.47477 8.90445 3.125 9.33594 3.125C9.76742 3.125 10.1172 3.47477 10.1172 3.90625V5.23438C10.1172 5.88055 10.6429 6.40625 11.2891 6.40625H12.6172C13.0487 6.40625 13.3984 6.75602 13.3984 7.1875C13.3984 7.61898 13.0487 7.96875 12.6172 7.96875Z" fill="white"/>
<path d="M10.6641 15.4297H5.27344C4.84195 15.4297 4.49219 15.0799 4.49219 14.6484C4.49219 14.217 4.84195 13.8672 5.27344 13.8672H10.6641C11.0955 13.8672 11.4453 14.217 11.4453 14.6484C11.4453 15.0799 11.0955 15.4297 10.6641 15.4297Z" fill="white"/>
<path d="M10.6641 12.4219H5.27344C4.84195 12.4219 4.49219 12.0721 4.49219 11.6406C4.49219 11.2091 4.84195 10.8594 5.27344 10.8594H10.6641C11.0955 10.8594 11.4453 11.2091 11.4453 11.6406C11.4453 12.0721 11.0955 12.4219 10.6641 12.4219Z" fill="white"/>
</svg>
