<svg width="20" height="20" viewBox="0 0 20 20" fill="none" xmlns="http://www.w3.org/2000/svg">
<path d="M10.6774 10.8233C11.0585 10.4418 11.0588 9.82438 10.6782 9.44434C10.2977 9.0643 9.68027 9.06553 9.29926 9.44708C8.91825 9.82863 8.91789 10.446 9.29847 10.8261C9.67904 11.2061 10.2964 11.2049 10.6774 10.8233Z" fill="#8F8F8F"/>
<path d="M15.2827 20.0001H4.67836C2.09871 20.0001 0 17.9013 0 15.3217V9.70766C0 7.12801 2.09871 5.0293 4.67836 5.0293H15.2827C17.8623 5.0293 19.961 7.12801 19.961 9.70766V15.3217C19.961 17.9013 17.8623 20.0001 15.2827 20.0001ZM4.67836 6.58875C2.9586 6.58875 1.55945 7.98789 1.55945 9.70766V15.3217C1.55945 17.0415 2.9586 18.4406 4.67836 18.4406H15.2827C17.0024 18.4406 18.4016 17.0415 18.4016 15.3217V9.70766C18.4016 7.98789 17.0024 6.58875 15.2827 6.58875H4.67836Z" fill="#8F8F8F"/>
<path d="M11.8905 14.7368H8.06983C5.72663 14.7368 3.82031 12.8304 3.82031 10.4872C3.82031 10.0566 4.1694 9.70752 4.60004 9.70752C5.03068 9.70752 5.37977 10.0566 5.37977 10.4872C5.37977 11.9706 6.58651 13.1773 8.06983 13.1773H11.8905C13.3738 13.1773 14.5805 11.9706 14.5805 10.4872C14.5805 10.0566 14.9296 9.70752 15.3603 9.70752C15.7909 9.70752 16.14 10.0566 16.14 10.4872C16.14 12.8304 14.2337 14.7368 11.8905 14.7368Z" fill="#8F8F8F"/>
<path d="M12.904 3.46979C12.4734 3.46979 12.1243 3.1207 12.1243 2.69006C12.1243 2.06667 11.6171 1.55945 10.9937 1.55945H8.96643C8.34299 1.55945 7.83582 2.06667 7.83582 2.69006C7.83582 3.1207 7.48674 3.46979 7.05609 3.46979C6.62545 3.46979 6.27637 3.1207 6.27637 2.69006C6.27637 1.20674 7.48311 0 8.96643 0H10.9937C12.477 0 13.6838 1.20674 13.6838 2.69006C13.6838 3.1207 13.3347 3.46979 12.904 3.46979Z" fill="#8F8F8F"/>
</svg>
