<svg width="20" height="20" viewBox="0 0 20 20" fill="none" xmlns="http://www.w3.org/2000/svg">
<path d="M16.5625 10.9375H15.625V5.9375C15.625 2.83594 13.1016 0.3125 10 0.3125C6.89844 0.3125 4.375 2.83594 4.375 5.9375V10.9375H3.4375C3.35462 10.9375 3.27513 10.9704 3.21653 11.029C3.15792 11.0876 3.125 11.1671 3.125 11.25V19.375C3.125 19.4579 3.15792 19.5374 3.21653 19.596C3.27513 19.6546 3.35462 19.6875 3.4375 19.6875H16.5625C16.6454 19.6875 16.7249 19.6546 16.7835 19.596C16.8421 19.5374 16.875 19.4579 16.875 19.375V11.25C16.875 11.1671 16.8421 11.0876 16.7835 11.029C16.7249 10.9704 16.6454 10.9375 16.5625 10.9375ZM5 5.9375C5 4.61142 5.52678 3.33965 6.46447 2.40197C7.40215 1.46428 8.67392 0.9375 10 0.9375C11.3261 0.9375 12.5979 1.46428 13.5355 2.40197C14.4732 3.33965 15 4.61142 15 5.9375V10.9375H13.75V5.9375C13.75 4.94294 13.3549 3.98911 12.6517 3.28585C11.9484 2.58259 10.9946 2.1875 10 2.1875C9.00544 2.1875 8.05161 2.58259 7.34835 3.28585C6.64509 3.98911 6.25 4.94294 6.25 5.9375V10.9375H5V5.9375ZM13.125 5.9375V10.9375H6.875V5.9375C6.875 5.1087 7.20424 4.31384 7.79029 3.72779C8.37634 3.14174 9.1712 2.8125 10 2.8125C10.8288 2.8125 11.6237 3.14174 12.2097 3.72779C12.7958 4.31384 13.125 5.1087 13.125 5.9375ZM16.25 19.0625H3.75V11.5625H16.25V19.0625Z" fill="#8F8F8F"/>
<path d="M4.375 12.5C4.54759 12.5 4.6875 12.3601 4.6875 12.1875C4.6875 12.0149 4.54759 11.875 4.375 11.875C4.20241 11.875 4.0625 12.0149 4.0625 12.1875C4.0625 12.3601 4.20241 12.5 4.375 12.5Z" fill="#8F8F8F"/>
<path d="M4.375 18.75C4.54759 18.75 4.6875 18.6101 4.6875 18.4375C4.6875 18.2649 4.54759 18.125 4.375 18.125C4.20241 18.125 4.0625 18.2649 4.0625 18.4375C4.0625 18.6101 4.20241 18.75 4.375 18.75Z" fill="#8F8F8F"/>
<path d="M15.625 12.5C15.7976 12.5 15.9375 12.3601 15.9375 12.1875C15.9375 12.0149 15.7976 11.875 15.625 11.875C15.4524 11.875 15.3125 12.0149 15.3125 12.1875C15.3125 12.3601 15.4524 12.5 15.625 12.5Z" fill="#8F8F8F"/>
<path d="M15.625 18.75C15.7976 18.75 15.9375 18.6101 15.9375 18.4375C15.9375 18.2649 15.7976 18.125 15.625 18.125C15.4524 18.125 15.3125 18.2649 15.3125 18.4375C15.3125 18.6101 15.4524 18.75 15.625 18.75Z" fill="#8F8F8F"/>
<path d="M14.6875 14.375H5.3125C5.22962 14.375 5.15013 14.4079 5.09153 14.4665C5.03292 14.5251 5 14.6046 5 14.6875V16.5625C5 16.6454 5.03292 16.7249 5.09153 16.7835C5.15013 16.8421 5.22962 16.875 5.3125 16.875H14.6875C14.7704 16.875 14.8499 16.8421 14.9085 16.7835C14.9671 16.7249 15 16.6454 15 16.5625V14.6875C15 14.6046 14.9671 14.5251 14.9085 14.4665C14.8499 14.4079 14.7704 14.375 14.6875 14.375ZM14.375 16.25H5.625V15H14.375V16.25Z" fill="#8F8F8F"/>
<path d="M10 15.9375C10.1726 15.9375 10.3125 15.7976 10.3125 15.625C10.3125 15.4524 10.1726 15.3125 10 15.3125C9.82741 15.3125 9.6875 15.4524 9.6875 15.625C9.6875 15.7976 9.82741 15.9375 10 15.9375Z" fill="#8F8F8F"/>
<path d="M8.75 15.9375C8.92259 15.9375 9.0625 15.7976 9.0625 15.625C9.0625 15.4524 8.92259 15.3125 8.75 15.3125C8.57741 15.3125 8.4375 15.4524 8.4375 15.625C8.4375 15.7976 8.57741 15.9375 8.75 15.9375Z" fill="#8F8F8F"/>
<path d="M7.5 15.9375C7.67259 15.9375 7.8125 15.7976 7.8125 15.625C7.8125 15.4524 7.67259 15.3125 7.5 15.3125C7.32741 15.3125 7.1875 15.4524 7.1875 15.625C7.1875 15.7976 7.32741 15.9375 7.5 15.9375Z" fill="#8F8F8F"/>
<path d="M11.25 15.9375C11.4226 15.9375 11.5625 15.7976 11.5625 15.625C11.5625 15.4524 11.4226 15.3125 11.25 15.3125C11.0774 15.3125 10.9375 15.4524 10.9375 15.625C10.9375 15.7976 11.0774 15.9375 11.25 15.9375Z" fill="#8F8F8F"/>
<path d="M12.5 15.9375C12.6726 15.9375 12.8125 15.7976 12.8125 15.625C12.8125 15.4524 12.6726 15.3125 12.5 15.3125C12.3274 15.3125 12.1875 15.4524 12.1875 15.625C12.1875 15.7976 12.3274 15.9375 12.5 15.9375Z" fill="#8F8F8F"/>
<path d="M13.75 15.9375C13.9226 15.9375 14.0625 15.7976 14.0625 15.625C14.0625 15.4524 13.9226 15.3125 13.75 15.3125C13.5774 15.3125 13.4375 15.4524 13.4375 15.625C13.4375 15.7976 13.5774 15.9375 13.75 15.9375Z" fill="#8F8F8F"/>
<path d="M6.25 15.9375C6.42259 15.9375 6.5625 15.7976 6.5625 15.625C6.5625 15.4524 6.42259 15.3125 6.25 15.3125C6.07741 15.3125 5.9375 15.4524 5.9375 15.625C5.9375 15.7976 6.07741 15.9375 6.25 15.9375Z" fill="#8F8F8F"/>
</svg>
