<svg width="19" height="19" viewBox="0 0 19 19" fill="none" xmlns="http://www.w3.org/2000/svg">
<path d="M0.294692 3.51322H0.329759C1.76036 3.59577 3.11179 4.21186 4.12845 5.24497C5.1451 6.27808 5.75649 7.65657 5.84697 9.11971C5.84505 9.13337 5.84505 9.14724 5.84697 9.1609C5.84735 9.18729 5.85039 9.21356 5.85606 9.23931C5.87306 9.31286 5.91389 9.37837 5.97189 9.42518C6.0299 9.47199 6.10168 9.49734 6.17556 9.49711H8.95624C9.03401 9.4969 9.10919 9.46848 9.1684 9.41689C9.22762 9.36531 9.26703 9.29391 9.27964 9.21539C9.28156 9.19772 9.28156 9.1799 9.27964 9.16223C9.28006 9.13667 9.277 9.11118 9.27054 9.08649C9.16986 6.71343 8.20387 4.46508 6.56304 2.78476C4.92221 1.10444 2.72562 0.114095 0.406387 0.00899692C0.381641 0.00351216 0.356378 0.000838241 0.331058 0.00102372C0.313767 -0.000341241 0.296398 -0.000341241 0.279107 0.00102372C0.20124 0.0137738 0.130451 0.0547505 0.0796637 0.116473C0.0288759 0.178196 0.00147654 0.256549 0.00246737 0.337227V3.17967C0.00232284 3.26238 0.0320958 3.34221 0.0860506 3.4038C0.140005 3.46538 0.214325 3.50436 0.294692 3.51322Z" fill="#FFB600"/>
<path d="M9.57462 3.51468H9.61098C11.0409 3.59723 12.3917 4.21304 13.4078 5.24565C14.424 6.27826 15.0351 7.65608 15.1256 9.11851C15.1256 9.1318 15.1256 9.14642 15.1256 9.15971C15.1253 9.18613 15.1284 9.21248 15.1347 9.23811C15.1513 9.31261 15.1923 9.37906 15.2509 9.42644C15.3094 9.47381 15.3821 9.49927 15.4568 9.49857H18.2388C18.3166 9.49815 18.3918 9.46968 18.4512 9.41816C18.5106 9.36664 18.5503 9.29537 18.5635 9.21685C18.5648 9.19916 18.5648 9.18139 18.5635 9.1637C18.5643 9.1382 18.5617 9.11271 18.5557 9.08795C18.4546 6.71412 17.4878 4.46522 15.8459 2.78483C14.2041 1.10444 12.0064 0.114567 9.68631 0.0104618C9.66197 0.00520146 9.63716 0.00252953 9.61228 0.00248857C9.59499 0.0011236 9.57762 0.0011236 9.56033 0.00248857C9.48313 0.015136 9.41287 0.0555336 9.36216 0.116425C9.31146 0.177316 9.28364 0.25471 9.28369 0.334705V3.18114C9.28351 3.26364 9.3131 3.3433 9.36679 3.40485C9.42048 3.46641 9.49449 3.50552 9.57462 3.51468Z" fill="#FFB600"/>
<path d="M8.87864 18.9868C6.55883 18.883 4.36129 17.8933 2.71962 16.2131C1.07794 14.5329 0.111355 12.2842 0.0105806 9.91062C0.00485786 9.88624 0.00180856 9.86128 0.0014892 9.83621C-0.000496399 9.81855 -0.000496399 9.80071 0.0014892 9.78305C0.0135997 9.70395 0.0530113 9.6319 0.112579 9.57997C0.172147 9.52804 0.247928 9.49967 0.326184 9.5H3.10946C3.19016 9.49989 3.26802 9.5304 3.328 9.58563C3.38797 9.64085 3.4258 9.71688 3.43416 9.799C3.43416 9.81096 3.43416 9.82292 3.43416 9.83621C3.51514 11.2994 4.11729 12.6814 5.12673 13.7211C6.13617 14.7608 7.48295 15.386 8.91241 15.4786C8.92579 15.4772 8.93928 15.4772 8.95267 15.4786C8.97803 15.479 9.00327 15.4821 9.028 15.4879C9.10132 15.5042 9.16702 15.5456 9.21425 15.6053C9.26147 15.665 9.2874 15.7393 9.28775 15.8161V18.6599C9.28724 18.7396 9.25918 18.8165 9.20855 18.8771C9.15792 18.9376 9.08798 18.9779 9.01111 18.9908C8.99429 18.9928 8.97729 18.9928 8.96046 18.9908C8.9351 18.9905 8.90984 18.9873 8.88513 18.9815L8.87864 18.9868Z" fill="#FFB600"/>
<path d="M18.5561 18.5814C18.4544 16.2082 17.4872 13.9601 15.8454 12.2805C14.2036 10.6008 12.0062 9.61163 9.68672 9.5079C9.662 9.50211 9.63675 9.49899 9.6114 9.49859C9.59413 9.49656 9.5767 9.49656 9.55944 9.49859C9.48112 9.51085 9.40983 9.55187 9.35892 9.61399C9.30801 9.67611 9.28095 9.75508 9.2828 9.83613V12.6772C9.28266 12.7599 9.31243 12.8398 9.36639 12.9014C9.42034 12.963 9.49466 13.0019 9.57503 13.0108H9.6114C11.0415 13.0934 12.3925 13.7094 13.4087 14.7423C14.4249 15.7751 15.0358 17.1533 15.126 18.616C15.1253 18.6297 15.1253 18.6434 15.126 18.6571C15.1258 18.6831 15.1288 18.709 15.1351 18.7342C15.1508 18.8091 15.191 18.8763 15.2491 18.9247C15.3072 18.973 15.3797 18.9996 15.4546 19H18.2366C18.3146 18.9995 18.39 18.9709 18.4494 18.9191C18.5088 18.8673 18.5484 18.7957 18.5613 18.7169V18.7063C18.5613 18.693 18.5613 18.6784 18.5613 18.6651C18.5634 18.6371 18.5616 18.6089 18.5561 18.5814Z" fill="#FFB600"/>
</svg>
