<svg width="18" height="18" viewBox="0 0 18 18" fill="none" xmlns="http://www.w3.org/2000/svg">
<path d="M16.9091 8.40347L13.7271 5.22151C13.6488 5.14316 13.5558 5.081 13.4534 5.0386C13.351 4.99619 13.2413 4.97437 13.1305 4.97437C13.0197 4.97437 12.91 4.99619 12.8076 5.0386C12.7052 5.081 12.6122 5.14316 12.5339 5.22151C12.3756 5.37974 12.2867 5.59435 12.2867 5.81813C12.2867 6.0419 12.3756 6.25651 12.5339 6.41475L14.2755 8.15635H5.0625C4.83872 8.15635 4.62411 8.24525 4.46588 8.40348C4.30764 8.56171 4.21875 8.77633 4.21875 9.0001C4.21875 9.22388 4.30764 9.43849 4.46588 9.59672C4.62411 9.75496 4.83872 9.84385 5.0625 9.84385H14.2755L12.5339 11.5855C12.3756 11.7437 12.2867 11.9583 12.2867 12.1821C12.2868 12.4059 12.3757 12.6205 12.5339 12.7787C12.6921 12.9369 12.9067 13.0258 13.1305 13.0258C13.3543 13.0258 13.5689 12.9369 13.7271 12.7787L16.9091 9.5967C17.0674 9.43847 17.1563 9.22386 17.1563 9.00008C17.1563 8.77631 17.0674 8.5617 16.9091 8.40347Z" fill="white"/>
<path d="M10.6875 13.7812C10.4637 13.7812 10.2491 13.8701 10.0909 14.0284C9.93264 14.1866 9.84375 14.4012 9.84375 14.625V15.4688H2.53125V2.53125H9.84375V3.375C9.84375 3.59878 9.93264 3.81339 10.0909 3.97162C10.2491 4.12986 10.4637 4.21875 10.6875 4.21875C10.9113 4.21875 11.1259 4.12986 11.2841 3.97162C11.4424 3.81339 11.5312 3.59878 11.5312 3.375V2.25C11.5312 2.06533 11.4949 1.88247 11.4242 1.71185C11.3535 1.54124 11.25 1.38621 11.1194 1.25563C10.9888 1.12505 10.8338 1.02147 10.6631 0.950794C10.4925 0.880124 10.3097 0.84375 10.125 0.84375H2.25C1.87704 0.84375 1.51935 0.991908 1.25563 1.25563C0.991908 1.51935 0.84375 1.87704 0.84375 2.25V15.75C0.84375 16.123 0.991908 16.4806 1.25563 16.7444C1.51935 17.0081 1.87704 17.1562 2.25 17.1562H10.125C10.3097 17.1562 10.4925 17.1199 10.6631 17.0492C10.8338 16.9785 10.9888 16.875 11.1194 16.7444C11.25 16.6138 11.3535 16.4588 11.4242 16.2881C11.4949 16.1175 11.5312 15.9347 11.5312 15.75V14.625C11.5312 14.4012 11.4424 14.1866 11.2841 14.0284C11.1259 13.8701 10.9113 13.7812 10.6875 13.7812Z" fill="white"/>
</svg>
