<svg width="297" height="285" viewBox="0 0 297 285" fill="none" xmlns="http://www.w3.org/2000/svg">
<path d="M155 0.5C124.853 0.5 96.0495 9.835 71.7055 27.495C68.9165 29.518 68.1585 33.348 69.9665 36.282L92.8295 73.374C93.7915 74.933 95.3595 76.023 97.1575 76.378C98.9535 76.732 100.819 76.324 102.303 75.249C116.533 64.926 133.372 59.469 151.001 59.469C196.784 59.469 234.031 96.716 234.031 142.499C234.031 188.282 196.784 225.529 151.001 225.529C133.372 225.529 116.533 220.073 102.303 209.749C100.819 208.673 98.9535 208.263 97.1575 208.62C95.3595 208.975 93.7915 210.064 92.8295 211.624L69.9665 248.717C68.1585 251.651 68.9165 255.48 71.7055 257.504C96.0495 275.165 124.853 284.5 155 284.5C233.299 284.5 297 220.799 297 142.5C297 64.201 233.299 0.5 155 0.5Z" fill="white"/>
<path d="M90.4008 195.757C91.5478 193.615 91.4218 191.017 90.0748 188.997L74.6118 165.802H168.178C181.027 165.802 191.48 155.349 191.48 142.5C191.48 129.651 181.027 119.198 168.178 119.198H74.6118L90.0748 96.003C91.4228 93.983 91.5478 91.385 90.4008 89.243C89.2548 87.102 87.0238 85.765 84.5948 85.765H40.0188C37.8178 85.765 35.7608 86.865 34.5398 88.698L1.10576 138.847C-0.369238 141.059 -0.369238 143.94 1.10576 146.153L34.5388 196.302C35.7598 198.134 37.8168 199.235 40.0178 199.235H84.5948C87.0248 199.235 89.2558 197.898 90.4008 195.757Z" fill="white"/>
</svg>
