<svg width="145" height="38" viewBox="0 0 145 38" fill="none" xmlns="http://www.w3.org/2000/svg">
<g clip-path="url(#clip0)">
<path d="M74.0406 16.1954C73.9037 16.3247 73.7947 16.482 73.7207 16.6571C73.6466 16.8323 73.6091 17.0214 73.6106 17.2123V17.6159H73.5482L73.3977 17.3667C73.2607 17.1611 73.0931 16.9787 72.9011 16.8263C72.6285 16.5917 72.3412 16.3758 72.041 16.1799C71.6185 15.9253 71.1612 15.7372 70.6843 15.6219C70.0783 15.467 69.4554 15.3929 68.8309 15.4013C66.7023 15.4013 65.0367 16.1432 63.8341 17.627C62.6315 19.1108 62.0295 20.985 62.028 23.2497C62.028 25.4908 62.6458 27.3797 63.8814 28.9165C65.117 30.4532 66.7969 31.2201 68.9212 31.2172C70.8477 31.2172 72.2725 30.5378 73.1956 29.179H73.2558L73.23 30.0106V30.7539C73.23 32.0907 72.8229 33.0686 72.0088 33.6877C71.1946 34.3068 70.1561 34.6156 68.8933 34.6141C67.4142 34.6345 65.9539 34.2726 64.6469 33.562L63.4708 36.6501C65.1502 37.5582 67.023 38.0243 68.9212 38.0067C69.9244 38.0111 70.9233 37.8707 71.8884 37.5898C72.8117 37.3196 73.684 36.8916 74.4685 36.3237C75.2775 35.725 75.9189 34.9187 76.3283 33.9855C76.8106 32.9109 77.0495 31.7382 77.0271 30.5554V19.7137C77.0271 19.3012 77.2421 19.0961 77.685 19.0961H78.2096L78.8547 15.763H75.3027C74.7394 15.763 74.318 15.9042 74.0406 16.1954ZM72.3055 26.8209C71.9739 27.1773 71.5726 27.4576 71.1279 27.6435C70.6833 27.8294 70.2053 27.9167 69.7254 27.8996C68.5213 27.8996 67.5832 27.4584 66.9109 26.5761C66.2386 25.6937 65.9025 24.5408 65.9025 23.1173C65.9025 21.7615 66.2136 20.6916 66.8357 19.9078C67.4577 19.124 68.3414 18.7321 69.4867 18.7321C72.0353 18.7321 73.3096 20.2468 73.3096 23.2761C73.3182 24.9129 72.9785 26.0996 72.3055 26.8209Z" fill="white"/>
<path d="M105.408 27.5289V21.6591C105.408 17.4783 103.201 15.3887 98.7859 15.3901C98.2575 15.3916 97.7297 15.4269 97.2056 15.496C96.5939 15.5891 95.989 15.7247 95.3952 15.9019C94.7709 16.0671 94.2069 16.4151 93.7719 16.9033C93.361 17.3794 93.1406 17.9971 93.1548 18.6327V20.2937H96.7068V19.4665C96.7068 19.0761 96.9218 18.8048 97.3712 18.6526C97.8154 18.4933 98.2831 18.4134 98.7537 18.4165C99.7384 18.4165 100.455 18.654 100.904 19.129C101.352 19.604 101.579 20.3959 101.583 21.5047V21.6305H101.104C100.577 21.6305 100.063 21.6525 99.5514 21.6922C99.0396 21.7319 98.4075 21.8069 97.6528 21.9128C96.9464 22.0049 96.2538 22.1864 95.5909 22.4532C94.9676 22.7125 94.3682 23.0285 93.7999 23.3973C93.233 23.7604 92.7701 24.2711 92.4582 24.8775C92.1305 25.5265 91.9643 26.2487 91.9744 26.9796C91.9744 28.4796 92.4905 29.6774 93.5139 30.5597C94.5506 31.4473 95.8665 31.9177 97.2164 31.8832C97.8306 31.886 98.4412 31.7869 99.0246 31.5898C99.4963 31.4413 99.9425 31.2181 100.347 30.9281C100.671 30.6818 100.964 30.3967 101.222 30.0788C101.402 29.8742 101.562 29.6526 101.701 29.4171C101.764 29.2935 101.813 29.1965 101.852 29.1083H101.914L101.886 29.7877C101.877 30.0192 101.915 30.2502 101.997 30.4659C102.08 30.6817 102.205 30.8774 102.366 31.0406C102.688 31.3604 103.179 31.5192 103.845 31.5192H106.623L107.268 28.2105H106.075C105.628 28.2083 105.408 27.9833 105.408 27.5289ZM101.643 24.6855C101.636 25.7191 101.281 26.7183 100.637 27.5134C99.9649 28.3958 99.1357 28.8369 98.1495 28.8369C97.4084 28.8369 96.8351 28.6355 96.4294 28.2325C96.2363 28.0494 96.0826 27.8268 95.9782 27.5792C95.8737 27.3315 95.8209 27.0642 95.8231 26.7943C95.8231 25.1502 97.5432 24.3282 100.983 24.3282H101.641L101.643 24.6855Z" fill="white"/>
<path d="M143.129 27.529V21.3813C143.129 17.3887 141.343 15.3917 137.771 15.3902C136.616 15.3654 135.478 15.6899 134.501 16.3233C133.651 16.8486 132.96 17.6063 132.506 18.5115H132.446L132.508 17.188V11.6513C132.508 10.2749 131.82 9.58447 130.457 9.58447H127.464L126.819 12.9197H128.025C128.466 12.9197 128.683 13.1403 128.683 13.5991V31.5149H132.512V24.2864C132.498 23.5987 132.579 22.9124 132.753 22.2482C133.027 21.3158 133.573 20.4916 134.316 19.8857C135.047 19.2831 135.959 18.9609 136.896 18.9747C137.799 18.9747 138.431 19.2475 138.793 19.7931C139.156 20.3379 139.332 21.1342 139.332 22.1864V29.4128C139.332 30.1539 139.498 30.6922 139.816 31.0208C140.134 31.3495 140.653 31.5149 141.353 31.5149H144.344L144.989 28.2062H143.79C143.349 28.2084 143.129 27.9834 143.129 27.529Z" fill="white"/>
<path d="M145 28.2091V28.1797L144.994 28.2091H145Z" fill="white"/>
<path d="M118.745 15.3903C118.109 15.3852 117.476 15.4767 116.866 15.6617C116.379 15.7957 115.912 15.9983 115.479 16.2639C115.147 16.4811 114.839 16.734 114.559 17.0182C114.367 17.2038 114.191 17.406 114.032 17.6226L113.869 17.8829H113.809V17.2653C113.809 16.2594 113.164 15.7543 111.874 15.7543H109.132L108.476 19.0873H109.683C109.773 19.0746 109.864 19.0834 109.95 19.113C110.036 19.1426 110.115 19.1922 110.179 19.258C110.243 19.3238 110.292 19.4039 110.321 19.4922C110.35 19.5804 110.359 19.6744 110.347 19.7667V37.6826H114.138V31.1753C114.142 30.7215 114.121 30.2679 114.075 29.8165H114.138L114.568 30.3393C114.851 30.6724 115.357 31.0011 116.09 31.3606C116.859 31.718 117.696 31.8973 118.541 31.8856C120.588 31.8856 122.273 31.129 123.596 29.6158C124.919 28.1026 125.583 26.11 125.587 23.638C125.587 21.1851 124.963 19.2042 123.721 17.6822C122.478 16.1602 120.809 15.3903 118.745 15.3903ZM120.62 27.2688C120.283 27.6859 119.859 28.0202 119.38 28.247C118.9 28.4738 118.377 28.5872 117.849 28.5791C117.302 28.6024 116.759 28.4829 116.27 28.2317C115.781 27.9805 115.363 27.6059 115.054 27.1431C114.376 26.1434 114.027 24.9478 114.058 23.7306C114.058 22.0807 114.429 20.8395 115.17 20.0072C115.51 19.608 115.93 19.289 116.402 19.072C116.874 18.855 117.386 18.7451 117.902 18.7498C118.436 18.7351 118.965 18.8506 119.447 19.0869C119.928 19.3231 120.348 19.6733 120.672 20.1086C121.377 21.016 121.729 22.2108 121.727 23.6931C121.726 25.1754 121.357 26.3673 120.62 27.2688Z" fill="white"/>
<path d="M87.5087 16.6917C86.6322 17.455 85.99 18.4625 85.6597 19.5923H85.5973L85.6597 18.6041V17.6777C85.6597 16.4005 84.9738 15.763 83.6106 15.763H80.7725L80.1275 19.096H81.3315C81.7615 19.096 81.9916 19.3166 81.9916 19.7754V31.5149H85.7887V25.2768C85.78 24.4134 85.8886 23.5529 86.1112 22.7202C86.3551 21.7707 86.8989 20.931 87.6575 20.3323C88.4161 19.7336 89.3468 19.4098 90.3039 19.4115C90.6159 19.4088 90.9278 19.4294 91.237 19.4732V15.6108L90.5447 15.5446C89.4293 15.5291 88.3479 15.9377 87.5087 16.6917Z" fill="white"/>
<path d="M44.6682 16.6918C43.7924 17.4558 43.1504 18.463 42.8191 19.5924H42.7568L42.8191 18.6042V17.6778C42.8191 16.3998 42.1369 15.7616 40.7723 15.7631H37.932L37.287 19.0961H38.4867C38.9167 19.0961 39.1468 19.3167 39.1468 19.7755V31.515H42.9417V25.2769C42.9356 24.4133 43.0455 23.553 43.2685 22.7203C43.5145 21.7732 44.0579 20.9358 44.8147 20.3376C45.5715 19.7394 46.4994 19.4139 47.4548 19.4116C47.7676 19.409 48.0801 19.4296 48.39 19.4733V15.6109L47.6977 15.5447C46.5848 15.5321 45.5063 15.9404 44.6682 16.6918Z" fill="white"/>
<path d="M57.2548 16.6918C56.3777 17.4555 55.7342 18.4627 55.4014 19.5924H55.3455L55.4014 18.6042V17.6778C55.4014 16.3999 54.7191 15.7616 53.3546 15.7631H50.5143L49.8693 19.0961H51.0755C51.5055 19.0961 51.7355 19.3167 51.7355 19.7755V31.515H55.5304V25.2769C55.5229 24.4135 55.6314 23.5533 55.853 22.7203C56.0983 21.7725 56.6419 20.9343 57.3993 20.336C58.1567 19.7377 59.0854 19.4127 60.0413 19.4116C60.3527 19.4091 60.6639 19.4297 60.9723 19.4733V15.6109L60.28 15.5447C59.1683 15.532 58.0912 15.9404 57.2548 16.6918Z" fill="white"/>
<path d="M0.484592 5.82685H0.542644C2.91096 5.96388 5.14822 6.98656 6.83127 8.70145C8.51431 10.4164 9.52645 12.7046 9.67623 15.1333C9.67305 15.156 9.67305 15.179 9.67623 15.2017C9.67686 15.2455 9.6819 15.2891 9.69128 15.3318C9.71943 15.4539 9.78701 15.5627 9.88304 15.6404C9.97908 15.7181 10.0979 15.7601 10.2202 15.7597H14.8235C14.9523 15.7594 15.0767 15.7122 15.1748 15.6266C15.2728 15.541 15.3381 15.4224 15.3589 15.2921C15.3621 15.2628 15.3621 15.2332 15.3589 15.2039C15.3596 15.1615 15.3546 15.1191 15.3439 15.0781C15.1772 11.139 13.578 7.40689 10.8617 4.61766C8.14532 1.82842 4.50893 0.184509 0.669499 0.0100515C0.628532 0.000947158 0.586711 -0.00349138 0.544794 -0.0031835C0.516169 -0.00544925 0.487416 -0.00544925 0.458791 -0.0031835C0.329884 0.0179809 0.212695 0.0859998 0.128618 0.188456C0.0445398 0.290913 -0.000819105 0.420973 0.000821177 0.554894V5.27319C0.000581922 5.41047 0.0498702 5.54299 0.139191 5.64522C0.228512 5.74744 0.351546 5.81214 0.484592 5.82685Z" fill="#FFB600"/>
<path d="M15.8484 5.83002H15.9086C18.2758 5.96704 20.5119 6.98925 22.1942 8.70333C23.8764 10.4174 24.8881 12.7045 25.0379 15.132C25.0379 15.1541 25.0379 15.1784 25.0379 15.2004C25.0374 15.2443 25.0425 15.288 25.0529 15.3306C25.0804 15.4542 25.1483 15.5645 25.2452 15.6432C25.3422 15.7218 25.4625 15.7641 25.5861 15.7629H30.1916C30.3205 15.7622 30.445 15.715 30.5433 15.6294C30.6416 15.5439 30.7074 15.4256 30.7292 15.2953C30.7313 15.2659 30.7313 15.2364 30.7292 15.207C30.7305 15.1647 30.7262 15.1224 30.7163 15.0813C30.5489 11.1409 28.9484 7.40785 26.2304 4.61851C23.5123 1.82916 19.8741 0.186035 16.0333 0.0132254C15.993 0.00449357 15.9519 5.83255e-05 15.9107 -9.66724e-06C15.8821 -0.00227542 15.8534 -0.00227542 15.8247 -9.66724e-06C15.6969 0.0209843 15.5806 0.0880419 15.4967 0.189118C15.4127 0.290193 15.3667 0.418663 15.3668 0.55145V5.27636C15.3665 5.4133 15.4155 5.54554 15.5043 5.64771C15.5932 5.74989 15.7157 5.81481 15.8484 5.83002Z" fill="#FFB600"/>
<path d="M14.6959 31.5126C10.8555 31.3403 7.21753 29.6976 4.49978 26.9086C1.78202 24.1195 0.181873 20.3867 0.015044 16.4467C0.00557013 16.4063 0.000522095 16.3648 -6.60005e-06 16.3232C-0.0032937 16.2939 -0.0032937 16.2643 -6.60028e-06 16.235C0.0200419 16.1037 0.0852868 15.9841 0.1839 15.8979C0.282513 15.8117 0.407966 15.7646 0.537516 15.7651H5.14516C5.27874 15.765 5.40765 15.8156 5.50694 15.9073C5.60623 15.9989 5.66885 16.1251 5.68268 16.2615C5.68268 16.2813 5.68268 16.3012 5.68268 16.3232C5.81675 18.752 6.81358 21.0461 8.48469 22.772C10.1558 24.4978 12.3853 25.5356 14.7518 25.6892C14.7739 25.6869 14.7963 25.6869 14.8184 25.6892C14.8604 25.6899 14.9022 25.695 14.9431 25.7047C15.0645 25.7317 15.1733 25.8005 15.2515 25.8995C15.3296 25.9986 15.3726 26.122 15.3731 26.2495V30.97C15.3723 31.1023 15.3259 31.23 15.242 31.3305C15.1582 31.431 15.0424 31.4979 14.9152 31.5192C14.8873 31.5226 14.8592 31.5226 14.8313 31.5192C14.7893 31.5187 14.7475 31.5135 14.7066 31.5038L14.6959 31.5126Z" fill="#FFB600"/>
<path d="M30.7163 30.8399C30.5479 26.9005 28.9468 23.1688 26.2288 20.3808C23.5108 17.5927 19.8732 15.9507 16.0333 15.7785C15.9924 15.7689 15.9506 15.7637 15.9086 15.763C15.88 15.7597 15.8512 15.7597 15.8226 15.763C15.693 15.7834 15.5749 15.8515 15.4907 15.9546C15.4064 16.0577 15.3616 16.1888 15.3647 16.3233V21.0394C15.3644 21.1767 15.4137 21.3092 15.503 21.4114C15.5923 21.5137 15.7154 21.5784 15.8484 21.5931H15.9086C18.2761 21.7301 20.5126 22.7527 22.1949 24.4672C23.8772 26.1817 24.8886 28.4693 25.0379 30.8973C25.0368 30.9201 25.0368 30.9429 25.0379 30.9657C25.0375 31.0088 25.0425 31.0518 25.053 31.0936C25.0789 31.218 25.1455 31.3295 25.2417 31.4097C25.3379 31.49 25.4579 31.5341 25.5819 31.5348H30.1874C30.3166 31.534 30.4413 31.4864 30.5397 31.4005C30.638 31.3145 30.7036 31.1957 30.7249 31.0649V31.0473C30.7249 31.0252 30.7249 31.001 30.7249 30.9789C30.7284 30.9324 30.7255 30.8856 30.7163 30.8399Z" fill="#FFB600"/>
</g>
<defs>
<clipPath id="clip0">
<rect width="145" height="38" fill="white"/>
</clipPath>
</defs>
</svg>
