<svg width="100" height="100" viewBox="0 0 100 100" fill="none" xmlns="http://www.w3.org/2000/svg">
<rect width="100" height="100" rx="3" fill="#E9E9E9"/>
<path d="M79.5479 90.5822V98.1726C79.5479 99.0272 78.8557 99.7193 78.0012 99.7193H21.5467C20.6921 99.7193 20 99.0272 20 98.1726V90.5822C20 82.6186 26.4555 76.167 34.421 76.165C37.236 76.1631 39.7146 74.715 41.1414 72.5187C42.5748 70.3158 42.4271 68.4002 42.4271 66.852L42.4561 66.7805C35.5153 63.9075 30.6335 57.0691 30.6335 49.0901V48.485C27.8775 48.485 25.8001 46.307 25.8001 43.7405V35.7054C25.7382 32.9078 25.8659 23.0418 32.9923 16.1725C41.2787 8.18574 54.4102 8.83922 63.9224 13.112C64.2317 13.2512 64.222 13.6939 63.9088 13.8235L61.4283 14.8443C61.0571 14.997 61.1364 15.5442 61.5346 15.5867L62.7391 15.7162C68.5064 16.333 73.8638 19.465 77.1853 24.6774C77.2742 24.8185 77.2491 25.0331 77.135 25.1549C75.0856 27.3223 73.9411 30.1991 73.9411 33.19V43.7405C73.9411 46.3602 71.8163 48.485 69.1966 48.485H68.9143V49.0901C68.9143 57.0691 64.0325 63.9075 57.0917 66.7805L57.1207 66.852C57.1207 68.3556 56.9609 70.2973 58.4064 72.5187C59.8333 74.715 62.3118 76.1631 65.1268 76.165C73.0923 76.167 79.5479 82.6186 79.5479 90.5822Z" fill="#FFDFBA"/>
<path d="M79.5479 90.5823V98.1727C79.5479 99.0269 78.8553 99.7194 78.0012 99.7194H21.5467C20.6925 99.7194 20 99.0269 20 98.1727V90.5823C20 82.6187 26.4565 76.168 34.4201 76.1651C37.2358 76.1642 39.715 74.7143 41.1414 72.5188C46.1206 76.7726 53.4243 76.7751 58.4064 72.5188C59.8327 74.7143 62.312 76.1642 65.1278 76.1651C73.0914 76.168 79.5479 82.6187 79.5479 90.5823V90.5823Z" fill="#FE4F60"/>
<path d="M77.1852 24.6783C77.2749 24.8192 77.2498 25.0326 77.1352 25.1541C75.0864 27.3229 73.9418 30.1988 73.9418 33.1899V43.7403C73.9418 46.1354 72.1374 48.4848 68.915 48.4848V36.5424C68.915 31.417 64.7602 27.2622 59.6349 27.2622H39.9145C34.7891 27.2622 30.6343 31.417 30.6343 36.5424V48.4848C27.8783 48.4848 25.8008 46.3069 25.8008 43.7403V35.7052C25.739 32.9077 25.8666 23.0417 32.993 16.1724C41.2788 8.18544 54.4117 8.8393 63.9223 13.1124C64.2316 13.2515 64.2235 13.6944 63.9097 13.8235L61.429 14.8447C61.0582 14.9975 61.1363 15.544 61.535 15.5868L62.7399 15.7161C68.5081 16.3323 73.8641 19.4643 77.1852 24.6783V24.6783Z" fill="#42434D"/>
<path d="M68.915 49.0902C68.915 59.665 60.3409 68.2306 49.7747 68.2306C39.8193 68.2306 30.6343 60.4911 30.6343 48.4851V36.5426C30.6343 31.4173 34.7891 27.2625 39.9145 27.2625H59.6349C64.7602 27.2625 68.915 31.4173 68.915 36.5426V49.0902Z" fill="#FFEBD2"/>
<path d="M65.4344 96.4325H60.7943C59.9401 96.4325 59.2476 95.74 59.2476 94.8858C59.2476 94.0316 59.9401 93.3391 60.7943 93.3391H65.4344C66.2885 93.3391 66.981 94.0316 66.981 94.8858C66.981 95.74 66.2887 96.4325 65.4344 96.4325Z" fill="white"/>
<path d="M45.4408 61.4502C48.5878 63.419 46.1063 68.2472 42.6614 66.8645C35.5787 64.0216 30.6343 57.1195 30.6343 49.0906V36.543C30.6343 34.5934 31.2356 32.7841 32.2626 31.2904C33.522 29.4589 36.4344 30.268 36.4344 32.6762V45.2238C36.4344 52.2826 40.1449 58.1368 45.4408 61.4502Z" fill="#FFF3E4"/>
<path d="M57.3396 70.0267C52.5763 72.0205 47.3417 72.1752 42.209 70.0267C42.4711 68.9389 42.4275 68.2344 42.4275 66.8521L42.4565 66.7805C47.1124 68.7131 52.427 68.717 57.0921 66.7805L57.1211 66.8521C57.1211 68.235 57.0774 68.9393 57.3396 70.0267Z" fill="#FFD6A6"/>
<path d="M42.211 80.8356C41.496 81.0604 40.7292 81.1844 39.9072 81.1915C31.9231 81.2619 25.4134 87.5749 25.4134 95.5594V97.0127C25.4134 98.5076 24.2016 99.7194 22.7067 99.7194H21.5467C20.6925 99.7194 20 99.0269 20 98.1727V90.5823C20 82.6185 26.4565 76.168 34.4201 76.1651C37.2358 76.1642 39.715 74.7143 41.1414 72.5188C41.7164 73.0099 42.332 73.4513 42.9804 73.8377C45.8328 75.5374 45.3782 79.8397 42.211 80.8356Z" fill="#FF6D7A"/>
<path d="M57.3362 80.8356C58.0511 81.0604 58.8179 81.1844 59.64 81.1915C67.624 81.2619 74.1337 87.5749 74.1337 95.5594V97.0127C74.1337 98.5076 75.3455 99.7194 76.8404 99.7194H78.0004C78.8546 99.7194 79.5471 99.0269 79.5471 98.1727V90.5823C79.5471 82.6185 73.0906 76.168 65.1271 76.1651C62.3113 76.1642 59.8321 74.7143 58.4057 72.5188C57.8307 73.0099 57.2151 73.4513 56.5667 73.8377C53.7146 75.5374 54.1689 79.8397 57.3362 80.8356V80.8356Z" fill="#E84857"/>
<path d="M63.9095 13.8235C61.6363 14.759 61.3123 14.9653 60.5246 14.8431C47.8274 12.8749 36.6873 18.1285 32.9041 30.4621V30.464C31.4888 32.0919 30.6343 34.2186 30.6343 36.5425V43.7971C30.6343 46.9269 25.8008 47.1447 25.8008 43.7405V35.7054C25.739 32.9078 25.8666 23.0418 32.993 16.1725C41.2794 8.18574 54.4109 8.83922 63.9231 13.112C64.2324 13.2512 64.2228 13.6939 63.9095 13.8235V13.8235Z" fill="#4D4E59"/>
</svg>
