<svg width="30" height="30" viewBox="0 0 30 30" fill="none" xmlns="http://www.w3.org/2000/svg">
<rect width="29.4737" height="29.4737" rx="5" fill="#3365FF" fill-opacity="0.2"/>
<path d="M11.9068 10.3654C11.569 10.3654 11.2949 10.0913 11.2949 9.7535V7.61189C11.2949 7.27413 11.569 7 11.9068 7C12.2446 7 12.5187 7.27413 12.5187 7.61189V9.7535C12.5187 10.0913 12.2446 10.3654 11.9068 10.3654Z" fill="#3365FF"/>
<path d="M14.8121 10.3654C14.4743 10.3654 14.2002 10.0913 14.2002 9.7535V7.61189C14.2002 7.27413 14.4743 7 14.8121 7C15.1498 7 15.424 7.27413 15.424 7.61189V9.7535C15.424 10.0913 15.1498 10.3654 14.8121 10.3654Z" fill="#3365FF"/>
<path d="M17.7193 10.3654C17.3815 10.3654 17.1074 10.0913 17.1074 9.7535V7.61189C17.1074 7.27413 17.3815 7 17.7193 7C18.0571 7 18.3312 7.27413 18.3312 7.61189V9.7535C18.3312 10.0913 18.0571 10.3654 17.7193 10.3654Z" fill="#3365FF"/>
<path d="M18.9432 8.37671H10.6827C9.75446 8.37671 9 9.13117 9 10.0594V20.0026C9 20.9308 9.75446 21.6853 10.6827 21.6853H18.9432C19.8714 21.6853 20.6259 20.9308 20.6259 20.0026V10.0594C20.6259 9.13117 19.8714 8.37671 18.9432 8.37671ZM12.0594 11.8951H15.1189C15.4566 11.8951 15.7308 12.1692 15.7308 12.507C15.7308 12.8447 15.4566 13.1188 15.1189 13.1188H12.0594C11.7217 13.1188 11.4476 12.8447 11.4476 12.507C11.4476 12.1692 11.7217 11.8951 12.0594 11.8951ZM18.1783 18.014H12.0594C11.7217 18.014 11.4476 17.7398 11.4476 17.4021C11.4476 17.0643 11.7217 16.7902 12.0594 16.7902H18.1783C18.5161 16.7902 18.7902 17.0643 18.7902 17.4021C18.7902 17.7398 18.5161 18.014 18.1783 18.014ZM18.1783 15.5664H12.0594C11.7217 15.5664 11.4476 15.2923 11.4476 14.9545C11.4476 14.6167 11.7217 14.3426 12.0594 14.3426H18.1783C18.5161 14.3426 18.7902 14.6167 18.7902 14.9545C18.7902 15.2923 18.5161 15.5664 18.1783 15.5664Z" fill="#3365FF"/>
</svg>
