<svg width="20" height="20" viewBox="0 0 20 20" fill="none" xmlns="http://www.w3.org/2000/svg">
<path d="M18.7671 5.1665H1.23288C0.553072 5.1665 0 5.71958 0 6.39938V10.1567C0 10.8365 0.553072 11.3896 1.23288 11.3896H12.1918C12.3539 11.3896 12.4853 11.2582 12.4853 11.0961C12.4853 10.9339 12.3539 10.8025 12.1918 10.8025H1.23288C0.876791 10.8025 0.587084 10.5128 0.587084 10.1567V6.39938C0.587084 6.04329 0.876791 5.75359 1.23288 5.75359H18.7671C19.1232 5.75359 19.4129 6.04329 19.4129 6.39938V9.21738C19.4129 9.3795 19.5443 9.51093 19.7065 9.51093C19.8686 9.51093 20 9.3795 20 9.21738V6.39938C20 5.71958 19.4469 5.1665 18.7671 5.1665Z" fill="#8F8F8F"/>
<path d="M18.7482 9.91147V9.53049C18.7482 8.16008 17.6333 7.04517 16.2629 7.04517C14.8925 7.04517 13.7776 8.16008 13.7776 9.53049V9.91147C13.414 10.0343 13.1514 10.3784 13.1514 10.7829V13.914C13.1514 14.4212 13.564 14.8338 14.0711 14.8338H18.4547C18.9619 14.8338 19.3745 14.4212 19.3745 13.914V10.7829C19.3745 10.3784 19.1118 10.0343 18.7482 9.91147ZM16.2629 7.63225C17.3096 7.63225 18.1612 8.4838 18.1612 9.53049V9.86317H14.3647V9.53049C14.3647 8.4838 15.2162 7.63225 16.2629 7.63225ZM18.7874 13.914C18.7874 14.0975 18.6381 14.2467 18.4547 14.2467H14.0711C13.8877 14.2467 13.7385 14.0975 13.7385 13.914V10.7829C13.7385 10.5995 13.8877 10.4503 14.0711 10.4503H18.4547C18.6381 10.4503 18.7874 10.5995 18.7874 10.7829V13.914Z" fill="#8F8F8F"/>
<path d="M4.76398 7.50493C4.68292 7.3645 4.50339 7.31643 4.363 7.39749L3.71866 7.76951V7.02548C3.71866 6.86336 3.58723 6.73193 3.42512 6.73193C3.263 6.73193 3.13157 6.86336 3.13157 7.02548V7.76951L2.48723 7.39749C2.34684 7.3164 2.16731 7.36454 2.08625 7.50493C2.00519 7.64532 2.0533 7.82485 2.19369 7.90591L2.83803 8.27792L2.19369 8.64994C2.0533 8.731 2.00519 8.91053 2.08625 9.05092C2.14061 9.14509 2.23928 9.19773 2.34073 9.19773C2.39052 9.19773 2.44101 9.18505 2.48723 9.15835L3.13157 8.78634V9.53037C3.13157 9.69248 3.263 9.82391 3.42512 9.82391C3.58723 9.82391 3.71866 9.69248 3.71866 9.53037V8.78634L4.363 9.15835C4.40922 9.18505 4.45971 9.19773 4.5095 9.19773C4.61095 9.19773 4.70962 9.14509 4.76398 9.05092C4.84504 8.91053 4.79693 8.731 4.65654 8.64994L4.0122 8.27792L4.65654 7.90591C4.79693 7.82485 4.84504 7.64532 4.76398 7.50493Z" fill="#8F8F8F"/>
<path d="M8.52081 7.50493C8.43976 7.3645 8.26023 7.31643 8.11984 7.39749L7.47549 7.76951V7.02548C7.47549 6.86336 7.34406 6.73193 7.18195 6.73193C7.01984 6.73193 6.88841 6.86336 6.88841 7.02548V7.76951L6.24406 7.39749C6.10367 7.3164 5.92414 7.36454 5.84309 7.50493C5.76203 7.64532 5.81013 7.82485 5.95052 7.90591L6.59487 8.27792L5.95052 8.64994C5.81013 8.731 5.76203 8.91053 5.84309 9.05092C5.89745 9.14509 5.99612 9.19773 6.09757 9.19773C6.14735 9.19773 6.19784 9.18505 6.24406 9.15835L6.88841 8.78634V9.53037C6.88841 9.69248 7.01984 9.82391 7.18195 9.82391C7.34406 9.82391 7.47549 9.69248 7.47549 9.53037V8.78634L8.11984 9.15835C8.16606 9.18505 8.21655 9.19773 8.26633 9.19773C8.36778 9.19773 8.46645 9.14509 8.52081 9.05092C8.60187 8.91053 8.55377 8.731 8.41338 8.64994L7.76903 8.27792L8.41338 7.90591C8.55377 7.82485 8.60187 7.64532 8.52081 7.50493Z" fill="#8F8F8F"/>
<path d="M12.2786 7.50493C12.1976 7.3645 12.018 7.31643 11.8777 7.39749L11.2333 7.76951V7.02548C11.2333 6.86336 11.1019 6.73193 10.9398 6.73193C10.7776 6.73193 10.6462 6.86336 10.6462 7.02548V7.76951L10.0019 7.39749C9.86149 7.3164 9.68196 7.36454 9.6009 7.50493C9.51984 7.64532 9.56794 7.82485 9.70833 7.90591L10.3527 8.27792L9.70833 8.64994C9.56794 8.731 9.51984 8.91053 9.6009 9.05092C9.65526 9.14509 9.75393 9.19773 9.85538 9.19773C9.90516 9.19773 9.95565 9.18505 10.0019 9.15835L10.6462 8.78634V9.53037C10.6462 9.69248 10.7776 9.82391 10.9398 9.82391C11.1019 9.82391 11.2333 9.69248 11.2333 9.53037V8.78634L11.8777 9.15835C11.9239 9.18505 11.9744 9.19773 12.0241 9.19773C12.1256 9.19773 12.2243 9.14509 12.2786 9.05092C12.3597 8.91053 12.3116 8.731 12.1712 8.64994L11.5268 8.27792L12.1712 7.90591C12.3116 7.82485 12.3597 7.64532 12.2786 7.50493Z" fill="#8F8F8F"/>
<path d="M16.2616 11.1157C15.7544 11.1157 15.3418 11.5283 15.3418 12.0355C15.3418 12.44 15.6044 12.7841 15.968 12.907V13.2879C15.968 13.45 16.0994 13.5815 16.2616 13.5815C16.4237 13.5815 16.5551 13.45 16.5551 13.2879V12.907C16.9187 12.7841 17.1813 12.44 17.1813 12.0355C17.1813 11.5283 16.7687 11.1157 16.2616 11.1157ZM16.2616 12.3682C16.0781 12.3682 15.9289 12.2189 15.9289 12.0355C15.9289 11.852 16.0781 11.7028 16.2616 11.7028C16.445 11.7028 16.5942 11.852 16.5942 12.0355C16.5942 12.2189 16.445 12.3682 16.2616 12.3682Z" fill="#8F8F8F"/>
</svg>
