<svg width="78" height="78" viewBox="0 0 78 78" fill="none" xmlns="http://www.w3.org/2000/svg">
<path d="M78 39C78 60.5391 60.5391 78 39 78C17.4609 78 0 60.5391 0 39C0 17.4609 17.4609 0 39 0C60.5391 0 78 17.4609 78 39Z" fill="#415A87"/>
<path d="M66.3158 19.0891C65.9819 19.4231 65.6382 19.7434 65.2871 20.053C65.2982 20.172 65.3046 20.2923 65.3046 20.4142C65.3046 22.5176 63.5994 24.2228 61.496 24.2228C60.7929 24.2228 60.1348 24.0315 59.5695 23.6992C58.2823 24.2606 56.9415 24.6968 55.5622 25.0007L63.269 32.7073C63.7152 33.1537 63.7152 33.877 63.269 34.3232C63.0458 34.5462 62.7533 34.6577 62.4609 34.6577C62.1686 34.6577 61.8761 34.5462 61.6529 34.3232L52.7592 25.4295C52.1102 25.4867 51.4556 25.5171 50.7961 25.5171H39.2285V38.0852C39.2285 38.0853 39.2285 38.0856 39.2285 38.0859V42.9443L44.8951 37.2776C45.3415 36.8315 46.0648 36.8315 46.511 37.2776C46.9572 37.724 46.9572 38.4473 46.511 38.8935L39.2285 46.1763V54.8436C39.2285 55.4748 38.7169 55.9862 38.0859 55.9862C37.4549 55.9862 36.9434 55.4748 36.9434 54.8436V45.7033C36.9434 45.7031 36.9434 45.7028 36.9434 45.7025V39.2284H24.7374C23.7149 39.2284 22.7105 39.1188 21.7356 38.9133L14.519 46.13C14.2958 46.3532 14.0033 46.4647 13.7109 46.4647C13.4186 46.4647 13.1261 46.3532 12.9031 46.1301C12.4568 45.6838 12.4568 44.9604 12.9031 44.5142L19.259 38.1583C16.6917 37.117 14.4538 35.3608 12.8319 33.093C10.8006 33.0114 9.17871 31.3397 9.17871 29.2884C9.17871 27.185 10.8839 25.4798 12.9873 25.4798C15.0907 25.4798 16.7959 27.185 16.7959 29.2884C16.7959 30.5755 16.1567 31.7128 15.1791 32.4023C17.4816 35.2158 20.9697 36.9434 24.7376 36.9434H35.3276L29.661 31.2768C29.2148 30.8304 29.2148 30.1071 29.661 29.6609C30.1072 29.2148 30.8307 29.2148 31.2768 29.6609L36.9435 35.3276V24.3748V15.7076L31.1845 9.9485C30.7382 9.50214 30.7382 8.77881 31.1845 8.33259C31.6307 7.88653 32.3542 7.88653 32.8002 8.33259L38.0859 13.6183L41.8482 9.85588C42.2946 9.40982 43.0179 9.40982 43.4641 9.85588C43.9103 10.3022 43.9103 11.0256 43.4641 11.4718L39.2285 15.7076V23.2323H50.7963C53.2952 23.2323 55.7226 22.7682 57.9813 21.8828C57.7922 21.4308 57.6874 20.9348 57.6874 20.4142C57.6874 18.3108 59.3926 16.6056 61.496 16.6056C62.6118 16.6056 63.6152 17.0855 64.3119 17.85C64.4425 17.7261 64.5721 17.6009 64.6998 17.4731C65.1462 17.027 65.8695 17.027 66.3157 17.4731C66.7619 17.9194 66.7619 18.6428 66.3158 19.0891Z" fill="#C78B00"/>
<path d="M56.5195 51.7969V57.8906C56.5195 58.732 55.8375 59.4141 54.9961 59.4141H53.6631L51.6 75.9185C47.6473 77.2672 43.4093 78 39 78C34.5907 78 30.3527 77.2672 26.4 75.9185L24.3369 59.4141H23.0039C22.1625 59.4141 21.4805 58.732 21.4805 57.8906V51.7969C21.4805 50.9555 22.1625 50.2734 23.0039 50.2734H54.9961C55.8375 50.2734 56.5195 50.9555 56.5195 51.7969Z" fill="#FF6633"/>
<path d="M29.7648 64.7688C32.9751 70.1759 37.6891 74.6737 43.3695 77.7549C41.9347 77.915 40.4774 78 39 78C34.5907 78 30.3527 77.2672 26.4 75.9185L24.7178 62.4609L24.3369 59.4141H53.6631L53.2822 62.4609H31.0719C29.8877 62.4609 29.1601 63.7505 29.7648 64.7688Z" fill="#FF5019"/>
<path d="M16.6626 42.9609V47.2266C16.6626 52.2748 12.5702 56.3672 7.52197 56.3672H3.25635C3.08816 56.3672 2.95166 56.2307 2.95166 56.0625V51.7969C2.95166 46.7487 7.04407 42.6562 12.0923 42.6562H16.3579C16.5261 42.6562 16.6626 42.7928 16.6626 42.9609ZM52.1061 31.4335H48.6147C46.2904 31.4335 44.2137 32.4934 42.8415 34.1562C41.7742 35.4496 41.133 37.1076 41.133 38.9153V42.4069C41.133 42.5446 41.2446 42.6562 41.3824 42.6562H44.8739C49.0059 42.6562 52.3557 39.3065 52.3557 35.1745V31.6829C52.3555 31.5452 52.2439 31.4335 52.1061 31.4335ZM27.5573 23.8164H24.0657C23.928 23.8164 23.8164 23.928 23.8164 24.0657V27.5573C23.8164 29.8816 24.8762 31.9584 26.539 33.3305C27.8323 34.3979 29.4904 35.0391 31.2981 35.0391H34.7897C34.9274 35.0391 35.0391 34.9274 35.0391 34.7897V31.2981C35.0391 27.1661 31.6893 23.8164 27.5573 23.8164ZM41.3161 12.7461H43.8825C46.9197 12.7461 49.3819 10.284 49.3819 7.24669V4.68015C49.3819 4.57884 49.2998 4.49688 49.1987 4.49688H46.6323C44.9237 4.49688 43.3973 5.27597 42.3886 6.49822C41.604 7.44885 41.1328 8.6676 41.1328 9.99634V12.5627C41.1328 12.664 41.2149 12.7461 41.3161 12.7461ZM25.5742 9.51417C26.8675 10.5815 28.5256 11.2226 30.3333 11.2226H33.8247C33.9625 11.2226 34.0741 11.1109 34.0741 10.9732V7.48175C34.0743 3.34973 30.7245 0 26.5925 0H23.1009C22.9632 0 22.8516 0.111668 22.8516 0.249387V3.74095C22.8516 6.06526 23.9114 8.14186 25.5742 9.51417ZM62.5964 29.9101H59.1048C58.9671 29.9101 58.8554 30.0218 58.8554 30.1595V33.6511C58.8554 35.9754 59.9153 38.0521 61.5781 39.4243C62.8713 40.4916 64.5295 41.1328 66.3372 41.1328H69.8287C69.9665 41.1328 70.0781 41.0211 70.0781 40.8834V37.3919C70.0781 33.2598 66.7284 29.9101 62.5964 29.9101Z" fill="#E3A600"/>
<path d="M16.5739 42.746C16.6287 42.8011 16.6627 42.877 16.6627 42.9609V47.2266C16.6627 52.2748 12.5703 56.3672 7.52209 56.3672H3.25646C3.17252 56.3672 3.09665 56.3332 3.0415 56.2784L16.5739 42.746ZM41.2064 42.5836C41.2514 42.6285 41.3136 42.6562 41.3823 42.6562H44.8739C46.612 42.6562 48.2116 42.0636 49.4818 41.0693C51.2313 39.6997 52.3558 37.5684 52.3558 35.1745V31.6829C52.3558 31.6142 52.3279 31.5521 52.2831 31.507L41.2064 42.5836ZM27.5574 23.8164H24.0659C23.9972 23.8164 23.935 23.8441 23.8899 23.889L34.9665 34.9655C35.0115 34.9204 35.0392 34.8582 35.0392 34.7895V31.298C35.0392 29.5599 34.4466 27.9603 33.4522 26.69C32.0828 24.9408 29.9514 23.8164 27.5574 23.8164ZM43.8827 12.7461C45.1603 12.7461 46.3361 12.3106 47.2698 11.5796C48.5557 10.5731 49.3822 9.00641 49.3822 7.24669V4.68015C49.3822 4.62973 49.3618 4.58402 49.3287 4.55081L41.187 12.6927C41.2202 12.7257 41.2658 12.7461 41.3164 12.7461H43.8827ZM34.0744 10.9733V7.48175C34.0744 5.74366 33.4818 4.14405 32.4874 2.87381C31.1178 1.12445 28.9866 0 26.5926 0H23.1011C23.0324 0 22.9702 0.0277266 22.9251 0.072668L34.0017 11.1491C34.0465 11.104 34.0744 11.0419 34.0744 10.9733ZM68.4913 32.7841C67.1219 31.0346 64.9904 29.9101 62.5965 29.9101H59.1049C59.0362 29.9101 58.9741 29.9378 58.929 29.9828L70.0056 41.0592C70.0505 41.0141 70.0782 40.952 70.0782 40.8833V37.3917C70.0782 35.6539 69.4856 34.0542 68.4913 32.7841Z" fill="#F2C230"/>
<path d="M22.8516 19.043C22.8516 25.3532 17.736 30.4688 11.4258 30.4688C5.11555 30.4688 0 25.3532 0 19.043C0 12.7327 5.11555 7.61719 11.4258 7.61719C17.736 7.61719 22.8516 12.7327 22.8516 19.043ZM66.5742 0C60.264 0 55.1484 5.11555 55.1484 11.4258C55.1484 17.736 60.264 22.8516 66.5742 22.8516C72.8845 22.8516 78 17.736 78 11.4258C78 5.11555 72.8845 0 66.5742 0Z" fill="#F2C230"/>
<path d="M20.5157 19.043C20.5157 24.0632 16.446 28.1329 11.4258 28.1329C6.40565 28.1329 2.33594 24.0632 2.33594 19.043C2.33594 14.0228 6.40565 9.95312 11.4258 9.95312C16.446 9.95312 20.5157 14.0228 20.5157 19.043ZM66.5743 2.33594C61.5541 2.33594 57.4844 6.40565 57.4844 11.4258C57.4844 16.446 61.5541 20.5157 66.5743 20.5157C71.5945 20.5157 75.6642 16.446 75.6642 11.4258C75.6642 6.40565 71.5945 2.33594 66.5743 2.33594Z" fill="#FFF573"/>
<path d="M17.1379 15.5056L11.4204 21.2231L7.88821 24.7553C7.45982 25.1837 6.763 25.1837 6.33476 24.7553L5.71365 24.1342C5.28526 23.7058 5.28526 23.009 5.71365 22.5807L9.24574 19.0485L14.9632 13.3309C15.3916 12.9025 16.0884 12.9025 16.5167 13.3309L17.1378 13.952C17.5663 14.3805 17.5663 15.0774 17.1379 15.5056ZM7.19824 16.6818C8.229 16.6818 9.06445 15.8464 9.06445 14.8156C9.06445 13.7849 8.229 12.9494 7.19824 12.9494C6.16748 12.9494 5.33203 13.7849 5.33203 14.8156C5.33203 15.8464 6.16748 16.6818 7.19824 16.6818ZM15.6533 21.4045C14.6226 21.4045 13.7871 22.2399 13.7871 23.2707C13.7871 24.3015 14.6226 25.1369 15.6533 25.1369C16.6841 25.1369 17.5195 24.3015 17.5195 23.2707C17.5195 22.2399 16.6841 21.4045 15.6533 21.4045ZM72.1963 13.7553C72.1389 15.6887 70.502 17.2024 68.5676 17.2024H67.9197V17.4245C67.9197 17.9554 67.4894 18.3857 66.9586 18.3857H66.1899C65.6591 18.3857 65.2287 17.9554 65.2287 17.4245V17.2022H63.2446C62.7138 17.2022 62.2835 16.772 62.2835 16.2411V15.4972C62.2835 14.9664 62.7138 14.5361 63.2446 14.5361H65.2287V12.759H64.5808C62.6465 12.759 61.0094 11.2453 60.952 9.31191C60.8924 7.30295 62.5092 5.64956 64.5051 5.64956H65.2287V5.42745C65.2287 4.89653 65.6591 4.46631 66.1899 4.46631H66.9584C67.4892 4.46631 67.9196 4.89668 67.9196 5.42745V5.64956H69.9037C70.4345 5.64956 70.8648 6.07978 70.8648 6.6107V7.35459C70.8648 7.88536 70.4345 8.31573 69.9037 8.31573H67.9196V10.093H68.6432C70.6391 10.093 72.256 11.7464 72.1963 13.7553ZM65.2287 8.31558H64.536C64.0845 8.31558 63.6814 8.63931 63.6239 9.08735C63.5545 9.62924 63.9766 10.093 64.5051 10.093H65.2287V8.31558ZM68.6434 12.759H67.9197V14.5362H68.6123C69.0638 14.5362 69.4669 14.2125 69.5244 13.7646C69.594 13.2227 69.1718 12.759 68.6434 12.759Z" fill="#C78B00"/>
</svg>
