<svg width="19" height="20" viewBox="0 0 19 20" fill="none" xmlns="http://www.w3.org/2000/svg">
<path d="M18.2578 20C17.8479 20 17.5156 19.6502 17.5156 19.2188C17.5156 17.6679 16.3249 16.4062 14.8614 16.4062H14.2324C12.7688 16.4062 11.5781 17.6679 11.5781 19.2188C11.5781 19.6502 11.2458 20 10.8359 20C10.426 20 10.0938 19.6502 10.0938 19.2188C10.0938 16.8064 11.9503 14.8438 14.2324 14.8438H14.8613C17.1434 14.8438 19 16.8064 19 19.2188C19 19.6502 18.6677 20 18.2578 20ZM17.6641 10.3516C17.6641 8.52074 16.249 7.03125 14.5098 7.03125C12.7705 7.03125 11.3555 8.52074 11.3555 10.3516C11.3555 12.1824 12.7705 13.6719 14.5098 13.6719C16.249 13.6719 17.6641 12.1824 17.6641 10.3516ZM16.1797 10.3516C16.1797 11.3208 15.4306 12.1094 14.5098 12.1094C13.589 12.1094 12.8398 11.3208 12.8398 10.3516C12.8398 9.38231 13.589 8.59375 14.5098 8.59375C15.4306 8.59375 16.1797 9.38231 16.1797 10.3516ZM8.60938 19.2188C8.60938 18.7873 8.2771 18.4375 7.86719 18.4375H4.45235C2.81582 18.4375 1.48438 17.036 1.48438 15.3133V4.68668C1.48438 2.96402 2.81582 1.5625 4.45235 1.5625H11.2828C12.9193 1.5625 14.2507 2.96402 14.2507 4.68668C14.2507 5.11816 14.583 5.46793 14.9929 5.46793C15.4028 5.46793 15.7351 5.11816 15.7351 4.68668C15.7352 2.10246 13.7378 0 11.282 0H4.45235C1.99734 0 0 2.10246 0 4.68668V15.3133C0 17.8975 1.99734 20 4.45235 20H7.86719C8.2771 20 8.60938 19.6502 8.60938 19.2188ZM9.83398 8.86719C9.83398 8.4357 9.50171 8.08594 9.0918 8.08594H5.08398C4.67407 8.08594 4.3418 8.4357 4.3418 8.86719C4.3418 9.29867 4.67407 9.64844 5.08398 9.64844H9.0918C9.50171 9.64844 9.83398 9.29867 9.83398 8.86719ZM11.3184 5.85938C11.3184 5.42789 10.9861 5.07812 10.5762 5.07812H5.08398C4.67407 5.07812 4.3418 5.42789 4.3418 5.85938C4.3418 6.29086 4.67407 6.64062 5.08398 6.64062H10.5762C10.9861 6.64062 11.3184 6.29086 11.3184 5.85938ZM9.83398 14.8438C9.83398 14.4123 9.50171 14.0625 9.0918 14.0625H5.08398C4.67407 14.0625 4.3418 14.4123 4.3418 14.8438C4.3418 15.2752 4.67407 15.625 5.08398 15.625H9.0918C9.50171 15.625 9.83398 15.2752 9.83398 14.8438ZM9.83398 11.8359C9.83398 11.4045 9.50171 11.0547 9.0918 11.0547H5.08398C4.67407 11.0547 4.3418 11.4045 4.3418 11.8359C4.3418 12.2674 4.67407 12.6172 5.08398 12.6172H9.0918C9.50171 12.6172 9.83398 12.2674 9.83398 11.8359Z" fill="white" fill-opacity="0.5"/>
</svg>
