<svg width="439" height="476" viewBox="0 0 439 476" fill="none" xmlns="http://www.w3.org/2000/svg">
<path d="M219.545 255.816C229.444 255.816 238.013 252.207 245.241 244.968C252.471 237.739 256.095 229.169 256.095 219.274V36.547C256.095 26.647 252.475 18.083 245.241 10.854C238.014 3.617 229.444 0 219.545 0C209.645 0 201.081 3.621 193.848 10.854C186.615 18.083 182.998 26.651 182.998 36.547V219.275C182.998 229.17 186.615 237.739 193.848 244.969C201.081 252.207 209.648 255.816 219.545 255.816Z" fill="#FF0000"/>
<path d="M415.836 157.887C400.511 127.245 378.958 101.548 351.17 80.8029C343.176 74.7129 334.135 72.3329 324.047 73.6639C313.958 74.9969 305.964 79.7549 300.064 87.9369C293.973 95.9299 291.646 104.923 293.07 114.916C294.493 124.914 299.209 132.953 307.203 139.044C325.848 153.128 340.275 170.356 350.453 190.722C360.637 211.086 365.723 232.787 365.723 255.813C365.723 275.614 361.869 294.501 354.162 312.491C346.456 330.478 336.032 346.035 322.897 359.17C309.762 372.301 294.209 382.721 276.219 390.431C258.232 398.141 239.341 402.001 219.546 402.001C199.754 402.001 180.862 398.141 162.875 390.431C144.886 382.721 129.328 372.301 116.193 359.17C103.064 346.035 92.6424 330.479 84.9324 312.491C77.2244 294.501 73.3694 275.614 73.3694 255.813C73.3694 232.787 78.4614 211.089 88.6434 190.722C98.8264 170.358 113.244 153.131 131.896 139.044C139.89 132.949 144.599 124.911 146.029 114.916C147.456 104.927 145.126 95.9299 139.034 87.9369C133.133 79.7549 125.19 74.9959 115.195 73.6639C105.201 72.3319 96.1104 74.7129 87.9274 80.8029C60.1354 101.548 38.5834 127.245 23.2584 157.887C7.93439 188.533 0.275391 221.175 0.275391 255.814C0.275391 285.511 6.08139 313.868 17.6904 340.896C29.3034 367.924 44.9084 391.236 64.5164 410.844C84.1184 430.447 107.435 446.059 134.465 457.659C161.493 469.274 189.853 475.085 219.545 475.085C249.238 475.085 277.597 469.274 304.626 457.659C331.657 446.055 354.973 430.446 374.578 410.844C394.18 391.242 409.785 367.924 421.396 340.896C433.007 313.868 438.808 285.504 438.808 255.814C438.809 221.174 431.16 188.532 415.836 157.887Z" fill="#FF0000"/>
</svg>
