<svg width="13" height="13" viewBox="0 0 13 13" fill="none" xmlns="http://www.w3.org/2000/svg">
<path d="M12.3601 11.8409L9.26609 8.623C10.0616 7.67732 10.4975 6.48745 10.4975 5.24874C10.4975 2.35463 8.14286 0 5.24874 0C2.35463 0 0 2.35463 0 5.24874C0 8.14286 2.35463 10.4975 5.24874 10.4975C6.33524 10.4975 7.37061 10.1698 8.25582 9.5477L11.3733 12.7901C11.5037 12.9254 11.6789 13 11.8667 13C12.0445 13 12.2131 12.9322 12.3412 12.809C12.6132 12.5472 12.6219 12.1132 12.3601 11.8409ZM5.24874 1.36924C7.38795 1.36924 9.12825 3.10954 9.12825 5.24874C9.12825 7.38795 7.38795 9.12825 5.24874 9.12825C3.10954 9.12825 1.36924 7.38795 1.36924 5.24874C1.36924 3.10954 3.10954 1.36924 5.24874 1.36924Z" fill="#8A8A8A"/>
</svg>
