<svg width="21" height="22" viewBox="0 0 21 22" fill="none" xmlns="http://www.w3.org/2000/svg">
<path d="M10.4999 7.27563C8.67638 7.27563 7.19287 8.75919 7.19287 10.5827C7.19287 12.4062 8.67643 13.8898 10.4999 13.8898C12.3235 13.8898 13.807 12.4062 13.807 10.5827C13.807 8.75919 12.3235 7.27563 10.4999 7.27563ZM10.4999 12.2362C9.58819 12.2362 8.84641 11.4945 8.84641 10.5827C8.84641 9.67095 9.58819 8.92917 10.4999 8.92917C11.4117 8.92917 12.1535 9.67095 12.1535 10.5827C12.1535 11.4945 11.4117 12.2362 10.4999 12.2362Z" fill="white" fill-opacity="0.5"/>
<path d="M20.676 13.0479L18.5352 11.4075C18.5954 10.8401 18.5917 10.2905 18.5352 9.75782L20.676 8.11738C21.0079 7.86307 21.0977 7.40099 20.8852 7.04089L18.812 3.52803C18.6054 3.17806 18.1751 3.03007 17.797 3.17901L15.2569 4.1794C14.793 3.84741 14.2965 3.5661 13.7727 3.33854L13.3914 0.708169C13.3325 0.301605 12.984 0 12.5732 0H8.42678C8.016 0 7.66752 0.301605 7.60861 0.70821L7.2273 3.33858C6.7035 3.56619 6.20699 3.84745 5.74309 4.17944L3.20305 3.17905C2.8248 3.03007 2.39459 3.1781 2.18806 3.52807L0.114814 7.04089C-0.0977066 7.40099 -0.0079195 7.86307 0.323946 8.11738L2.46482 9.75778C2.40463 10.3251 2.40831 10.8747 2.46482 11.4075L0.323987 13.0479C-0.00791954 13.3022 -0.0977067 13.7643 0.114856 14.1244L2.18802 17.6373C2.39455 17.9872 2.8248 18.1352 3.203 17.9863L5.74309 16.9859C6.2069 17.3178 6.70346 17.5992 7.22726 17.8268L7.60857 20.4571C7.66752 20.8637 8.016 21.1653 8.42678 21.1653H12.5732C12.984 21.1653 13.3325 20.8637 13.3914 20.4572L13.7727 17.8268C14.2965 17.5992 14.7931 17.3179 15.2569 16.986L17.797 17.9863C18.1752 18.1353 18.6054 17.9872 18.812 17.6373L20.8852 14.1244C21.0977 13.7643 21.0079 13.3023 20.676 13.0479ZM17.7465 16.1892L15.4296 15.2768C15.152 15.1675 14.8373 15.2161 14.6057 15.4039C14.0467 15.8576 13.4192 16.2124 12.7408 16.4587C12.4544 16.5627 12.2484 16.8157 12.2047 17.1172L11.8576 19.5118H9.14231L8.79527 17.1172C8.75153 16.8157 8.54559 16.5627 8.25919 16.4587C7.58075 16.2124 6.95327 15.8575 6.39425 15.4039C6.16267 15.2161 5.84784 15.1675 5.57037 15.2768L3.25348 16.1892L1.91118 13.9148L3.85243 12.4273C4.09641 12.2403 4.21658 11.9335 4.16433 11.6305C4.04263 10.9247 4.04664 10.2173 4.16433 9.53471C4.21658 9.23179 4.09641 8.92489 3.85243 8.73796L1.91118 7.25043L3.25348 4.97603L5.57037 5.8885C5.84796 5.99784 6.16267 5.94914 6.39425 5.7613C6.95331 5.30773 7.58079 4.95288 8.25919 4.70659C8.54559 4.60262 8.75153 4.34959 8.79527 4.04807L9.14235 1.65354H11.8577L12.2047 4.04807C12.2484 4.34959 12.4544 4.60262 12.7408 4.70659C13.4192 4.95288 14.0467 5.30773 14.6057 5.7613C14.8373 5.94918 15.1521 5.9978 15.4296 5.8885L17.7465 4.97603L19.0888 7.25043L17.1475 8.73796C16.9035 8.92493 16.7833 9.23179 16.8356 9.53471C16.9573 10.2406 16.9533 10.948 16.8356 11.6305C16.7833 11.9335 16.9035 12.2404 17.1475 12.4273L19.0888 13.9148L17.7465 16.1892Z" fill="white" fill-opacity="0.5"/>
</svg>
