<svg width="23" height="23" viewBox="0 0 23 23" fill="none" xmlns="http://www.w3.org/2000/svg">
<rect width="23" height="23" rx="3" fill="#3365FF"/>
<path d="M11.8716 8C9.62792 8 7.59326 9.22752 6.09188 11.2213C5.96937 11.3847 5.96937 11.6129 6.09188 11.7763C7.59326 13.7725 9.62792 15 11.8716 15C14.1152 15 16.1499 13.7725 17.6513 11.7787C17.7738 11.6153 17.7738 11.3871 17.6513 11.2237C16.1499 9.22752 14.1152 8 11.8716 8ZM12.0325 13.9647C10.5432 14.0583 9.31323 12.8308 9.40691 11.3391C9.48378 10.1091 10.4807 9.11222 11.7106 9.03535C13.2 8.94166 14.4299 10.1692 14.3362 11.6609C14.2569 12.8885 13.26 13.8854 12.0325 13.9647ZM11.958 12.826C11.1557 12.8765 10.4927 12.2159 10.5456 11.4135C10.5864 10.7505 11.1245 10.2148 11.7875 10.1716C12.5898 10.1211 13.2528 10.7817 13.2 11.5841C13.1567 12.2495 12.6187 12.7852 11.958 12.826Z" fill="white"/>
</svg>
