<svg width="18" height="20" viewBox="0 0 18 20" fill="none" xmlns="http://www.w3.org/2000/svg">
<path d="M15.9363 12.8657V11.8359C15.9363 10.5436 14.9077 9.49219 13.6433 9.49219C12.379 9.49219 11.3503 10.5436 11.3503 11.8359V12.8524C10.1311 13.2635 9.24841 14.4382 9.24841 15.8203V16.875C9.24841 18.5981 10.6199 20 12.3057 20H14.9427C16.6285 20 18 18.5981 18 16.875V15.8203C18 14.4527 17.1357 13.2883 15.9363 12.8657ZM13.6433 11.0547C14.0648 11.0547 14.4076 11.4052 14.4076 11.8359V12.6953H12.879V11.8359C12.879 11.4052 13.2219 11.0547 13.6433 11.0547ZM16.4713 16.875C16.4713 17.7366 15.7856 18.4375 14.9427 18.4375H12.3057C11.4628 18.4375 10.7771 17.7366 10.7771 16.875V15.8203C10.7771 14.9587 11.4628 14.2578 12.3057 14.2578H14.9427C15.7856 14.2578 16.4713 14.9587 16.4713 15.8203V16.875ZM7.45223 10.5469C10.297 10.5469 12.6115 8.18121 12.6115 5.27344C12.6115 2.36566 10.297 0 7.45223 0C4.60743 0 2.29299 2.36566 2.29299 5.27344C2.29299 8.18121 4.60743 10.5469 7.45223 10.5469ZM7.45223 1.5625C9.45413 1.5625 11.0828 3.22723 11.0828 5.27344C11.0828 7.31965 9.45413 8.98438 7.45223 8.98438C5.45033 8.98438 3.82166 7.31965 3.82166 5.27344C3.82166 3.22723 5.45033 1.5625 7.45223 1.5625ZM14.6242 16.3281C14.6242 16.8675 14.1965 17.3047 13.6688 17.3047C13.1411 17.3047 12.7134 16.8675 12.7134 16.3281C12.7134 15.7888 13.1411 15.3516 13.6688 15.3516C14.1965 15.3516 14.6242 15.7888 14.6242 16.3281ZM8.48408 12.8906C8.48408 13.3221 8.14189 13.6719 7.71975 13.6719H6.95541C3.9631 13.6719 1.52866 16.1602 1.52866 19.2188C1.52866 19.6502 1.18647 20 0.764331 20C0.342191 20 0 19.6502 0 19.2188C0 15.2986 3.12019 12.1094 6.95541 12.1094H7.71975C8.14189 12.1094 8.48408 12.4591 8.48408 12.8906Z" fill="white" fill-opacity="0.5"/>
</svg>
