<svg width="100" height="100" viewBox="0 0 100 100" fill="none" xmlns="http://www.w3.org/2000/svg">
<rect width="100" height="100" rx="3" fill="#E9E9E9"/>
<path d="M79.5551 90.5811V98.1724C79.5551 99.0271 78.8628 99.7193 78.0082 99.7193H21.5469C20.6922 99.7193 20 99.0271 20 98.1724V90.5811C20 85.8495 22.2797 81.6498 25.8008 79.0201V29.2394C25.8008 18.6142 34.415 10 45.0402 10H54.7082C65.3334 10 73.9476 18.6142 73.9476 29.2394V79.1689C77.3585 81.8044 79.5551 85.9366 79.5551 90.5811Z" fill="#FFDFBA"/>
<path d="M79.5551 90.5813V98.1726C79.5551 99.0273 78.8628 99.7195 78.0082 99.7195H21.5469C20.6922 99.7195 20 99.0273 20 98.1726V90.5813C20 82.627 26.4474 76.1624 34.4189 76.1624C36.1881 76.1624 37.824 75.5901 39.1504 74.6194L39.4985 76.872L48.8301 84.0979C49.3889 84.5291 50.1662 84.5291 50.725 84.0979L60.0566 76.872L60.4046 74.6194C61.7311 75.5901 63.3669 76.1624 65.1362 76.1624C73.0794 76.1624 79.5551 82.6021 79.5551 90.5813V90.5813Z" fill="#FFA4B8"/>
<path d="M60.0571 76.8718L56.538 99.7193H43.0182L39.499 76.8718L48.831 84.0973C49.3885 84.5291 50.1675 84.5291 50.725 84.0973L60.0571 76.8718Z" fill="#D6F4FC"/>
<path d="M68.9207 49.084V39.5488C68.9207 38.8987 68.5158 38.3173 67.9044 38.0961C64.5397 36.8792 61.699 34.5349 59.8729 31.4031C59.34 30.4893 58.0724 30.3556 57.3801 31.1554C51.007 38.5191 42.2209 43.387 31.9981 44.6303C31.2204 44.7248 30.6353 45.3821 30.6353 46.1654V49.0836C30.6353 57.0636 35.5176 63.9027 42.4593 66.7761L42.4303 66.848V68.1687C42.4303 72.5958 38.8328 76.1622 34.4194 76.1622C31.1883 76.1622 28.2067 77.2257 25.8013 79.0201C25.8013 77.4765 25.8013 27.7743 25.8013 29.2394C25.8013 18.6138 34.4151 10 45.0406 10H54.7087C65.3342 10 73.948 18.6138 73.948 29.2394V79.1689C71.5117 77.2837 68.4547 76.1622 65.1366 76.1622C60.728 76.1622 57.1257 72.6005 57.1257 68.1687V66.848L57.0967 66.7765C64.0383 63.9031 68.9207 57.064 68.9207 49.084V49.084Z" fill="#C79A83"/>
<path d="M67.9034 38.0964C68.5148 38.3174 68.9197 38.8988 68.9197 39.5491V49.0843C68.9197 57.0643 64.0373 63.9034 57.0957 66.7768C44.5433 71.9871 30.6343 62.7307 30.6343 49.0841V46.1659C30.6343 45.3824 31.2194 44.7254 31.9971 44.6308C42.2141 43.3883 51.0021 38.5239 57.3791 31.1559C58.0714 30.356 59.339 30.4898 59.8719 31.4036C61.6965 34.5327 64.536 36.8786 67.9034 38.0964Z" fill="#FFEBD2"/>
<path d="M57.3428 70.0231C52.579 72.0173 47.3438 72.172 42.2104 70.0231C42.4726 68.9353 42.4289 68.2307 42.4289 66.8482L42.458 66.7766C47.1145 68.7094 52.4298 68.7133 57.0953 66.7766L57.1244 66.8482C57.1244 68.2313 57.0807 68.9357 57.3428 70.0231Z" fill="#FFD6A6"/>
<path d="M61.9545 11.411C64.3112 12.3698 63.5304 15.8685 60.9867 15.8066C60.5965 15.7971 50.6473 15.8008 50.8415 15.8008C40.2159 15.8008 31.6021 24.4146 31.6021 35.0402V43.6248C31.6021 45.0346 30.6353 45.0729 30.6353 46.1662C30.6353 49.2576 30.4908 51.5578 31.4923 54.7659C31.563 54.9925 31.6021 55.228 31.6021 55.4654V74.6569C31.6021 75.6478 30.9733 76.5412 30.0293 76.843C28.4921 77.3343 27.0674 78.0761 25.8013 79.0202V29.2394C25.8013 18.6138 34.4151 10 45.0406 10H54.7087C57.2722 10 59.7183 10.5012 61.9545 11.411V11.411Z" fill="#E0B7A3"/>
<path d="M45.5213 61.3164C48.7479 63.3246 46.1994 68.2777 42.6719 66.8633C35.5116 63.9927 30.6343 57.0431 30.6343 49.0838V46.166C30.6343 45.3838 31.2169 44.7254 31.9934 44.6313C32.7262 44.5423 33.4836 44.4304 34.2611 44.2923C35.3786 44.0937 36.4299 44.8923 36.5277 46.0231C37.1395 53.0978 40.7227 58.3299 45.5213 61.3164V61.3164Z" fill="#FFF3E4"/>
<path d="M40.2526 81.766C31.1859 81.9988 25.6075 88.8254 25.6075 96.1888V99.7195H21.5469C20.6926 99.7195 20 99.0269 20 98.1726V90.5813C20 82.627 26.4474 76.1624 34.4189 76.1624C36.1881 76.1624 37.824 75.5901 39.1504 74.6194C39.5901 77.4657 39.3589 75.9663 40.2526 81.766V81.766Z" fill="#FFB1BF"/>
<path d="M59.3018 81.766C68.3684 81.9988 73.9469 88.8254 73.9469 96.1888V99.7195H78.0075C78.8617 99.7195 79.5543 99.0269 79.5543 98.1726V90.5813C79.5543 82.627 73.1069 76.1624 65.1354 76.1624C63.3662 76.1624 61.7304 75.5901 60.4039 74.6194C59.9642 77.4657 60.1955 75.9663 59.3018 81.766V81.766Z" fill="#FF99AF"/>
<path d="M46.8854 99.7193H43.0182L39.499 76.8718L43.8902 80.2711L46.8854 99.7193Z" fill="#BDEFFC"/>
</svg>
