<svg width="19" height="19" viewBox="0 0 19 19" fill="none" xmlns="http://www.w3.org/2000/svg">
<g clip-path="url(#clip0)" filter="url(#filter0_d)">
<path d="M9.5 14.3125C8.22365 14.3125 6.99957 13.8055 6.09705 12.903C5.19453 12.0004 4.6875 10.7764 4.6875 9.5C4.6875 8.22365 5.19453 6.99957 6.09705 6.09705C6.99957 5.19453 8.22365 4.6875 9.5 4.6875C10.7764 4.6875 12.0004 5.19453 12.903 6.09705C13.8055 6.99957 14.3125 8.22365 14.3125 9.5C14.3125 10.7764 13.8055 12.0004 12.903 12.903C12.0004 13.8055 10.7764 14.3125 9.5 14.3125ZM9.5 15C10.9587 15 12.3576 14.4205 13.3891 13.3891C14.4205 12.3576 15 10.9587 15 9.5C15 8.04131 14.4205 6.64236 13.3891 5.61091C12.3576 4.57946 10.9587 4 9.5 4C8.04131 4 6.64236 4.57946 5.61091 5.61091C4.57946 6.64236 4 8.04131 4 9.5C4 10.9587 4.57946 12.3576 5.61091 13.3891C6.64236 14.4205 8.04131 15 9.5 15Z" fill="#0EB0E3"/>
<path d="M10.1393 8.52925L8.56497 8.72656L8.50859 8.98781L8.81797 9.04487C9.02009 9.093 9.05997 9.16588 9.01597 9.36731L8.50859 11.7516C8.37522 12.3682 8.58078 12.6584 9.06409 12.6584C9.43878 12.6584 9.87397 12.4851 10.0713 12.2473L10.1318 11.9612C9.99428 12.0823 9.79353 12.1304 9.66015 12.1304C9.47109 12.1304 9.40234 11.9977 9.45115 11.7639L10.1393 8.52925ZM10.1875 7.09375C10.1875 7.27609 10.115 7.45095 9.9861 7.57989C9.85717 7.70882 9.6823 7.78125 9.49997 7.78125C9.31763 7.78125 9.14276 7.70882 9.01383 7.57989C8.8849 7.45095 8.81247 7.27609 8.81247 7.09375C8.81247 6.91141 8.8849 6.73655 9.01383 6.60761C9.14276 6.47868 9.31763 6.40625 9.49997 6.40625C9.6823 6.40625 9.85717 6.47868 9.9861 6.60761C10.115 6.73655 10.1875 6.91141 10.1875 7.09375Z" fill="#0EB0E3"/>
</g>
<defs>
<filter id="filter0_d" x="0" y="0" width="19" height="19" filterUnits="userSpaceOnUse" color-interpolation-filters="sRGB">
<feFlood flood-opacity="0" result="BackgroundImageFix"/>
<feColorMatrix in="SourceAlpha" type="matrix" values="0 0 0 0 0 0 0 0 0 0 0 0 0 0 0 0 0 0 127 0"/>
<feOffset/>
<feGaussianBlur stdDeviation="2"/>
<feColorMatrix type="matrix" values="0 0 0 0 0.054902 0 0 0 0 0.690196 0 0 0 0 0.890196 0 0 0 0.25 0"/>
<feBlend mode="normal" in2="BackgroundImageFix" result="effect1_dropShadow"/>
<feBlend mode="normal" in="SourceGraphic" in2="effect1_dropShadow" result="shape"/>
</filter>
<clipPath id="clip0">
<rect width="11" height="11" fill="white" transform="translate(4 4)"/>
</clipPath>
</defs>
</svg>
