<svg width="103" height="103" viewBox="0 0 103 103" fill="none" xmlns="http://www.w3.org/2000/svg">
<g clip-path="url(#clip0)">
<path d="M78.7826 84.8943H24.2168V56.4851C24.2168 41.4172 36.4318 29.2022 51.4997 29.2022C66.5676 29.2022 78.7823 41.4172 78.7823 56.4851V84.8943H78.7826Z" fill="url(#paint0_linear)"/>
<path d="M63.9885 32.2282C58.9187 29.6138 52.974 29.6138 47.904 32.2282C39.1183 36.7588 33.1104 45.9189 33.1104 56.4851V84.8943H78.7822V56.4851C78.7822 45.9187 72.7742 36.7588 63.9885 32.2282Z" fill="url(#paint1_linear)"/>
<path d="M51.4996 29.2022C49.6004 29.2022 47.7468 29.3973 45.957 29.7667C58.3671 32.3278 67.6973 43.3164 67.6973 56.4851V84.8943H78.7823V56.4851C78.7825 41.4172 66.5675 29.2022 51.4996 29.2022Z" fill="url(#paint2_linear)"/>
<path d="M51.5005 58.7572C62.0238 58.7572 70.5547 52.5919 70.5547 44.9865C70.5547 37.3812 62.0238 31.2158 51.5005 31.2158C40.9771 31.2158 32.4463 37.3812 32.4463 44.9865C32.4463 52.5919 40.9771 58.7572 51.5005 58.7572Z" fill="url(#paint3_linear)"/>
<path d="M50.2346 73.8252L37.1469 76.5077C33.203 77.3159 29.5098 74.3028 29.5098 70.277V62.6259C29.5098 58.6 33.203 55.5869 37.1469 56.3952L50.2346 59.0776C51.7004 59.3779 52.7526 60.6679 52.7526 62.1642V70.7386C52.7526 72.235 51.7002 73.5249 50.2346 73.8252Z" fill="url(#paint4_linear)"/>
<path d="M52.7661 59.0778L65.8538 56.3954C69.7976 55.5871 73.4909 58.6002 73.4909 62.6261V70.2771C73.4909 74.303 69.7976 77.3161 65.8538 76.5078L52.7661 73.8254C51.3003 73.5251 50.248 72.2352 50.248 70.7388V62.1644C50.248 60.668 51.3005 59.3781 52.7661 59.0778Z" fill="url(#paint5_linear)"/>
<path d="M24.2168 60.5881H78.7824V84.8942H24.2168V60.5881Z" fill="url(#paint6_linear)"/>
<path d="M81.7363 92.3449H21.6113V86.5884C21.6113 83.2603 24.3093 80.5625 27.6372 80.5625H75.7104C79.0385 80.5625 81.7363 83.2605 81.7363 86.5884V92.3449Z" fill="url(#paint7_linear)"/>
<path d="M86.6558 98.2361H16.3448C14.6826 98.2361 13.335 96.8886 13.335 95.2263V92.4796C13.335 89.1515 16.033 86.4537 19.3609 86.4537H83.6395C86.9676 86.4537 89.6654 89.1517 89.6654 92.4796V95.2263C89.6656 96.8886 88.3182 98.2361 86.6558 98.2361Z" fill="url(#paint8_linear)"/>
<path d="M51.5004 21.2076C49.7639 21.2076 48.3564 19.8 48.3564 18.0637V7.90772C48.3564 6.17126 49.7641 4.76379 51.5004 4.76379C53.2368 4.76379 54.6443 6.17146 54.6443 7.90772V18.0635C54.6443 19.8 53.2368 21.2076 51.5004 21.2076Z" fill="url(#paint9_linear)"/>
<path d="M86.5557 56.2639C86.5557 54.5274 87.9633 53.1199 89.6996 53.1199H99.8554C101.592 53.1199 102.999 54.5276 102.999 56.2639C102.999 58.0003 101.592 59.4078 99.8554 59.4078H89.6996C87.9633 59.4078 86.5557 58.0001 86.5557 56.2639Z" fill="url(#paint10_linear)"/>
<path d="M0 56.2639C0 54.5274 1.40767 53.1199 3.14392 53.1199H13.2997C15.0362 53.1199 16.4436 54.5276 16.4436 56.2639C16.4436 58.0003 15.036 59.4078 13.2997 59.4078H3.14392C1.40767 59.4078 0 58.0001 0 56.2639H0Z" fill="url(#paint11_linear)"/>
<path d="M76.288 31.4753C75.0603 30.2476 75.0603 28.2568 76.288 27.0291L83.4693 19.8478C84.697 18.6201 86.6878 18.6201 87.9155 19.8478C89.1432 21.0755 89.1432 23.0662 87.9155 24.294L80.7341 31.4753C79.5064 32.703 77.5157 32.703 76.288 31.4753Z" fill="url(#paint12_linear)"/>
<path d="M15.084 19.8477C16.3117 18.6199 18.3025 18.6199 19.5302 19.8477L26.7115 27.029C27.9392 28.2567 27.9392 30.2474 26.7115 31.4752C25.4838 32.7029 23.4931 32.7029 22.2653 31.4752L15.084 24.2938C13.8561 23.0663 13.8561 21.0756 15.084 19.8477Z" fill="url(#paint13_linear)"/>
</g>
<defs>
<linearGradient id="paint0_linear" x1="47.4782" y1="41.911" x2="52.0561" y2="73.5391" gradientUnits="userSpaceOnUse">
<stop stop-color="#FF7044"/>
<stop offset="0.2346" stop-color="#FE653C"/>
<stop offset="0.6509" stop-color="#FB4628"/>
<stop offset="1" stop-color="#F82814"/>
</linearGradient>
<linearGradient id="paint1_linear" x1="50.3011" y1="52.681" x2="29.7011" y2="-4.27199" gradientUnits="userSpaceOnUse">
<stop stop-color="#FFD945" stop-opacity="0"/>
<stop offset="1" stop-color="#FBED21"/>
</linearGradient>
<linearGradient id="paint2_linear" x1="62.3698" y1="30.1837" x2="62.3698" y2="89.6333" gradientUnits="userSpaceOnUse">
<stop stop-color="#F82814" stop-opacity="0"/>
<stop offset="1" stop-color="#C0272D"/>
</linearGradient>
<linearGradient id="paint3_linear" x1="51.5005" y1="46.0817" x2="51.5005" y2="-1.74135" gradientUnits="userSpaceOnUse">
<stop stop-color="white" stop-opacity="0"/>
<stop offset="1" stop-color="white"/>
</linearGradient>
<linearGradient id="paint4_linear" x1="44.8923" y1="69.5465" x2="4.50014" y2="43.1568" gradientUnits="userSpaceOnUse">
<stop stop-color="#FFD945" stop-opacity="0"/>
<stop offset="1" stop-color="#FBED21"/>
</linearGradient>
<linearGradient id="paint5_linear" x1="58.1084" y1="63.3565" x2="98.5005" y2="89.7461" gradientUnits="userSpaceOnUse">
<stop stop-color="#FFD945" stop-opacity="0"/>
<stop offset="1" stop-color="#FBED21"/>
</linearGradient>
<linearGradient id="paint6_linear" x1="51.4997" y1="70.6861" x2="51.4997" y2="82.1308" gradientUnits="userSpaceOnUse">
<stop stop-color="#F82814" stop-opacity="0"/>
<stop offset="0.1249" stop-color="#ED2819" stop-opacity="0.125"/>
<stop offset="0.4524" stop-color="#D42724" stop-opacity="0.452"/>
<stop offset="0.7531" stop-color="#C5272B" stop-opacity="0.753"/>
<stop offset="1" stop-color="#C0272D"/>
</linearGradient>
<linearGradient id="paint7_linear" x1="51.6738" y1="81.3855" x2="51.6738" y2="88.9942" gradientUnits="userSpaceOnUse">
<stop stop-color="#8A7889"/>
<stop offset="1" stop-color="#6E566E"/>
</linearGradient>
<linearGradient id="paint8_linear" x1="51.5003" y1="87.2767" x2="51.5003" y2="94.8854" gradientUnits="userSpaceOnUse">
<stop stop-color="#8A7889"/>
<stop offset="1" stop-color="#6E566E"/>
</linearGradient>
<linearGradient id="paint9_linear" x1="46.7107" y1="12.9856" x2="55.3251" y2="12.9856" gradientUnits="userSpaceOnUse">
<stop stop-color="#FFD945"/>
<stop offset="0.3043" stop-color="#FFCD3E"/>
<stop offset="0.8558" stop-color="#FFAD2B"/>
<stop offset="1" stop-color="#FFA325"/>
</linearGradient>
<linearGradient id="paint10_linear" x1="94.7777" y1="51.4742" x2="94.7777" y2="60.0884" gradientUnits="userSpaceOnUse">
<stop stop-color="#FFD945"/>
<stop offset="0.3043" stop-color="#FFCD3E"/>
<stop offset="0.8558" stop-color="#FFAD2B"/>
<stop offset="1" stop-color="#FFA325"/>
</linearGradient>
<linearGradient id="paint11_linear" x1="8.22182" y1="51.4742" x2="8.22182" y2="60.0884" gradientUnits="userSpaceOnUse">
<stop stop-color="#FFD945"/>
<stop offset="0.3043" stop-color="#FFCD3E"/>
<stop offset="0.8558" stop-color="#FFAD2B"/>
<stop offset="1" stop-color="#FFA325"/>
</linearGradient>
<linearGradient id="paint12_linear" x1="78.6765" y1="22.2539" x2="84.7668" y2="28.3442" gradientUnits="userSpaceOnUse">
<stop stop-color="#FFD945"/>
<stop offset="0.3043" stop-color="#FFCD3E"/>
<stop offset="0.8558" stop-color="#FFAD2B"/>
<stop offset="1" stop-color="#FFA325"/>
</linearGradient>
<linearGradient id="paint13_linear" x1="24.2652" y1="22.196" x2="18.1749" y2="28.2863" gradientUnits="userSpaceOnUse">
<stop stop-color="#FFD945"/>
<stop offset="0.3043" stop-color="#FFCD3E"/>
<stop offset="0.8558" stop-color="#FFAD2B"/>
<stop offset="1" stop-color="#FFA325"/>
</linearGradient>
<clipPath id="clip0">
<rect width="103" height="103" fill="white"/>
</clipPath>
</defs>
</svg>
