<svg width="23" height="23" viewBox="0 0 23 23" fill="none" xmlns="http://www.w3.org/2000/svg">
<rect width="23" height="23" rx="3" fill="#101010"/>
<path d="M11.4532 13.4114C11.0871 13.4114 10.7803 13.7182 10.7803 14.0843C10.7803 14.4504 11.0871 14.7572 11.4532 14.7572C11.8058 14.7572 12.1261 14.4504 12.1099 14.1004C12.1261 13.7155 11.8219 13.4114 11.4532 13.4114Z" fill="#FFB600" fill-opacity="0.5"/>
<path d="M17.6815 15.7962C18.1041 15.0668 18.1068 14.1974 17.6869 13.4706L13.4718 6.17087C13.0546 5.43605 12.3009 5 11.4557 5C10.6106 5 9.85689 5.43874 9.43968 6.16818L5.21917 13.476C4.79927 14.2108 4.80196 15.0856 5.22724 15.8151C5.64714 16.5364 6.39811 16.9698 7.23791 16.9698H15.6574C16.4999 16.9698 17.2562 16.531 17.6815 15.7962ZM16.7664 15.2687C16.5322 15.6724 16.1177 15.912 15.6547 15.912H7.23522C6.77764 15.912 6.36581 15.6778 6.13702 15.2821C5.90554 14.8811 5.90285 14.402 6.13433 13.9982L10.3548 6.69305C10.5836 6.29199 10.9928 6.05513 11.4557 6.05513C11.916 6.05513 12.3278 6.29469 12.5566 6.69574L16.7744 14.0009C17.0005 14.3939 16.9979 14.8676 16.7664 15.2687Z" fill="#FFB600"/>
<path d="M11.2861 8.68745C10.9658 8.77897 10.7666 9.06967 10.7666 9.42228C10.7828 9.63492 10.7962 9.85025 10.8124 10.0629C10.8581 10.8731 10.9039 11.6671 10.9496 12.4773C10.9658 12.7519 11.1784 12.951 11.453 12.951C11.7275 12.951 11.9429 12.7384 11.9563 12.4612C11.9563 12.2943 11.9563 12.1408 11.9725 11.9713C12.0021 11.4518 12.0344 10.9323 12.064 10.4128C12.0801 10.0763 12.1097 9.73989 12.1259 9.40343C12.1259 9.28231 12.1097 9.17464 12.064 9.06698C11.9267 8.76551 11.6064 8.61209 11.2861 8.68745Z" fill="#FFB600" fill-opacity="0.5"/>
</svg>
