<svg width="131" height="171" viewBox="0 0 131 171" fill="none" xmlns="http://www.w3.org/2000/svg">
<path d="M124.35 170.233C120.678 170.233 117.701 167.256 117.701 163.584C117.701 137.55 96.5207 116.371 70.4873 116.371H60.5127C34.4793 116.371 13.2995 137.55 13.2995 163.584C13.2995 167.256 10.3224 170.233 6.64975 170.233C2.97709 170.233 0 167.256 0 163.584C0 130.217 27.1459 103.071 60.5127 103.071H70.4873C103.854 103.071 131 130.217 131 163.584C131 167.256 128.023 170.233 124.35 170.233Z" fill="black" fill-opacity="0.1"/>
<path d="M64.835 89.7716C40.085 89.7716 19.9492 69.6358 19.9492 44.8858C19.9492 20.1358 40.085 0 64.835 0C89.585 0 109.721 20.1358 109.721 44.8858C109.721 69.6358 89.585 89.7716 64.835 89.7716ZM64.835 13.2995C47.4183 13.2995 33.2487 27.4691 33.2487 44.8858C33.2487 62.3025 47.4183 76.4721 64.835 76.4721C82.2517 76.4721 96.4213 62.3025 96.4213 44.8858C96.4213 27.4691 82.2517 13.2995 64.835 13.2995Z" fill="black" fill-opacity="0.1"/>
</svg>
