<svg width="80" height="80" viewBox="0 0 80 80" fill="none" xmlns="http://www.w3.org/2000/svg">
<circle cx="40" cy="40" r="40" fill="#151515"/>
<g clip-path="url(#clip0)">
<path d="M17.7085 26.3212H17.7935C21.2617 26.5168 24.538 27.9764 27.0026 30.4241C29.4673 32.8718 30.9495 36.1377 31.1688 39.6043C31.1642 39.6366 31.1642 39.6695 31.1688 39.7019C31.1698 39.7644 31.1771 39.8266 31.1909 39.8876C31.2321 40.0619 31.3311 40.2171 31.4717 40.328C31.6123 40.4389 31.7863 40.499 31.9654 40.4984H38.7066C38.8951 40.4979 39.0774 40.4306 39.221 40.3084C39.3645 40.1862 39.4601 40.017 39.4906 39.831C39.4953 39.7891 39.4953 39.7469 39.4906 39.705C39.4916 39.6445 39.4842 39.5841 39.4686 39.5256C39.2245 33.9032 36.8827 28.5764 32.9048 24.5953C28.9269 20.6142 23.6018 18.2679 17.9793 18.0189C17.9193 18.0059 17.858 17.9995 17.7967 18C17.7547 17.9968 17.7126 17.9968 17.6707 18C17.4819 18.0302 17.3103 18.1273 17.1872 18.2735C17.0641 18.4197 16.9977 18.6054 17.0001 18.7965V25.5309C16.9997 25.7269 17.0719 25.916 17.2027 26.0619C17.3335 26.2079 17.5137 26.3002 17.7085 26.3212Z" fill="#FFE121"/>
<path d="M40.2085 26.3212H40.2966C43.7631 26.5168 47.0378 27.9758 49.5013 30.4223C51.9648 32.8688 53.4463 36.1331 53.6656 39.598C53.6656 39.6295 53.6656 39.6641 53.6656 39.6956C53.665 39.7582 53.6724 39.8206 53.6877 39.8813C53.7279 40.0578 53.8273 40.2153 53.9693 40.3275C54.1114 40.4398 54.2875 40.5001 54.4685 40.4984H61.2129C61.4016 40.4974 61.584 40.43 61.7279 40.3079C61.8719 40.1858 61.9682 40.017 62 39.8309C62.0047 39.7891 62.0047 39.7469 62 39.705C62.002 39.6446 61.9957 39.5842 61.9811 39.5256C61.7361 33.9014 59.3923 28.5732 55.4119 24.592C51.4316 20.6108 46.1037 18.2655 40.4792 18.0189C40.4202 18.0064 40.3601 18.0001 40.2998 18C40.2579 17.9968 40.2157 17.9968 40.1738 18C39.9867 18.0299 39.8163 18.1257 39.6934 18.2699C39.5705 18.4142 39.503 18.5976 39.5032 18.7871V25.5309C39.5027 25.7264 39.5745 25.9151 39.7046 26.061C39.8348 26.2068 40.0142 26.2995 40.2085 26.3212Z" fill="#FFE121"/>
<path d="M38.5207 62.9779C32.8968 62.7319 27.5694 60.3873 23.5895 56.4065C19.6096 52.4257 17.2663 47.0979 17.022 41.4743C17.0081 41.4166 17.0007 41.3574 16.9999 41.298C16.9951 41.2562 16.9951 41.2139 16.9999 41.1721C17.0293 40.9847 17.1249 40.814 17.2693 40.6909C17.4137 40.5679 17.5974 40.5007 17.7871 40.5015H24.5346C24.7302 40.5012 24.919 40.5735 25.0644 40.7043C25.2098 40.8352 25.3015 41.0153 25.3217 41.2099C25.3217 41.2382 25.3217 41.2665 25.3217 41.298C25.5181 44.7646 26.9778 48.039 29.425 50.5023C31.8722 52.9656 35.1372 54.4469 38.6026 54.6661C38.635 54.6628 38.6677 54.6628 38.7002 54.6661C38.7617 54.667 38.8229 54.6744 38.8828 54.6881C39.0606 54.7268 39.2199 54.8249 39.3343 54.9663C39.4488 55.1077 39.5117 55.2839 39.5125 55.4658V62.2034C39.5113 62.3922 39.4433 62.5745 39.3205 62.7179C39.1978 62.8614 39.0282 62.9568 38.8419 62.9873C38.8011 62.9921 38.7599 62.9921 38.7191 62.9873C38.6576 62.9866 38.5964 62.9792 38.5365 62.9653L38.5207 62.9779Z" fill="#FFE121"/>
<path d="M61.9811 62.018C61.7345 56.3953 59.3899 51.069 55.4096 47.0896C51.4293 43.1102 46.1024 40.7665 40.4792 40.5208C40.4193 40.507 40.358 40.4997 40.2966 40.4987C40.2547 40.4939 40.2125 40.4939 40.1706 40.4987C39.9807 40.5278 39.8079 40.6249 39.6845 40.7721C39.5611 40.9193 39.4955 41.1064 39.5 41.2984V48.0297C39.4996 48.2256 39.5718 48.4148 39.7026 48.5607C39.8334 48.7066 40.0136 48.7989 40.2084 48.8199H40.2966C43.7631 49.0155 47.0378 50.4745 49.5013 52.921C51.9647 55.3675 53.4463 58.6319 53.6656 62.0967C53.6656 62.1313 53.6656 62.1628 53.6656 62.1975C53.665 62.259 53.6724 62.3204 53.6876 62.3801C53.7257 62.5576 53.8232 62.7168 53.964 62.8313C54.1049 62.9458 54.2807 63.0088 54.4622 63.0098H61.2065C61.3957 63.0086 61.5784 62.9407 61.7224 62.818C61.8665 62.6953 61.9625 62.5257 61.9937 62.3391V62.314C61.9937 62.2825 61.9937 62.2478 61.9937 62.2164C61.9987 62.15 61.9945 62.0832 61.9811 62.018Z" fill="#FFE121"/>
</g>
<defs>
<clipPath id="clip0">
<rect width="45" height="45" fill="white" transform="translate(17 18)"/>
</clipPath>
</defs>
</svg>
