<svg width="9" height="10" viewBox="0 0 9 10" fill="none" xmlns="http://www.w3.org/2000/svg">
<path d="M7.41189 6.57324V8.16148H1.58836V6.57324H0.529541V8.69089C0.529541 8.98365 0.766718 9.2203 1.05895 9.2203H7.94131C8.23407 9.2203 8.47072 8.98365 8.47072 8.69089V6.57324H7.41189Z" fill="black"/>
<path d="M6.59407 4.611C6.55119 4.51624 6.45695 4.45588 6.35319 4.45588H5.29437V1.01471C5.29437 0.868588 5.17578 0.75 5.02966 0.75H3.97084C3.82472 0.75 3.70613 0.868588 3.70613 1.01471V4.45588H2.64731C2.54354 4.45588 2.44931 4.51677 2.40642 4.611C2.36301 4.70577 2.37995 4.81641 2.44825 4.89476L4.30119 7.01241C4.35148 7.07012 4.42401 7.10294 4.50025 7.10294C4.57648 7.10294 4.64901 7.06959 4.69931 7.01241L6.55225 4.89476C6.62107 4.81694 6.63695 4.70577 6.59407 4.611Z" fill="black"/>
<path d="M7.8 6.57373V8.47961H1.2V6.57373H0V9.11491C0 9.46622 0.2688 9.7502 0.6 9.7502H8.4C8.7318 9.7502 9 9.46622 9 9.11491V6.57373H7.8Z" fill="black"/>
</svg>
