<svg width="23" height="23" viewBox="0 0 23 23" fill="none" xmlns="http://www.w3.org/2000/svg">
<rect width="23" height="23" rx="3" fill="#C4C4C4" fill-opacity="0.2"/>
<path d="M16.8243 6.53991H14.2774C14.2774 5.13711 13.1372 4 11.7305 4C10.3239 4 9.1836 5.13711 9.1836 6.53991H6.63671C6.28498 6.53991 6 6.82413 6 7.17487C6 7.52562 6.285 7.80984 6.63671 7.80984H6.8914V15.5565C6.89293 16.4678 7.63306 17.2059 8.54688 17.2075H14.9141C15.828 17.2059 16.5681 16.4678 16.5696 15.5565V7.80984H16.8243C17.176 7.80984 17.461 7.52562 17.461 7.17487C17.461 6.82413 17.176 6.53991 16.8243 6.53991ZM11.7305 5.26995C12.4337 5.26995 13.004 5.83865 13.004 6.53991H10.4571C10.4571 5.83862 11.0273 5.26995 11.7305 5.26995ZM15.2962 15.5565C15.2962 15.7668 15.125 15.9375 14.9141 15.9375H8.54688C8.33599 15.9375 8.16486 15.7668 8.16486 15.5565V7.80984H15.2962V15.5565Z" fill="#424242"/>
<path d="M10.3322 13.7786C9.98146 13.7786 9.69727 13.4944 9.69727 13.1436V10.6037C9.69727 10.2529 9.98148 9.96875 10.3322 9.96875C10.683 9.96875 10.9672 10.253 10.9672 10.6037V13.1436C10.9672 13.4944 10.683 13.7786 10.3322 13.7786Z" fill="#9D9D9D"/>
<path d="M13.1262 13.7786C12.7754 13.7786 12.4912 13.4944 12.4912 13.1436V10.6037C12.4912 10.2529 12.7754 9.96875 13.1262 9.96875C13.4769 9.96875 13.7611 10.253 13.7611 10.6037V13.1436C13.7611 13.4944 13.4769 13.7786 13.1262 13.7786Z" fill="#9D9D9D"/>
</svg>
