<svg width="17" height="11" viewBox="0 0 17 11" fill="none" xmlns="http://www.w3.org/2000/svg">
<g filter="url(#filter0_d)">
<path fill-rule="evenodd" clip-rule="evenodd" d="M4.13175 4.90753C4.16368 4.88716 4.20162 4.87099 4.24338 4.85997C4.28514 4.84894 4.32991 4.84326 4.37513 4.84326C4.42034 4.84326 4.46511 4.84894 4.50687 4.85997C4.54864 4.87099 4.58657 4.88716 4.6185 4.90753L8.50013 7.37809L12.3818 4.90753C12.4463 4.86645 12.5338 4.84338 12.6251 4.84338C12.7164 4.84338 12.804 4.86645 12.8685 4.90753C12.933 4.9486 12.9693 5.00431 12.9693 5.0624C12.9693 5.12049 12.933 5.1762 12.8685 5.21728L8.7435 7.84228C8.71157 7.86265 8.67364 7.87881 8.63187 7.88984C8.59011 7.90087 8.54534 7.90654 8.50013 7.90654C8.45491 7.90654 8.41014 7.90087 8.36838 7.88984C8.32662 7.87881 8.28868 7.86265 8.25675 7.84228L4.13175 5.21728C4.09974 5.19696 4.07434 5.17282 4.05701 5.14624C4.03968 5.11967 4.03076 5.09118 4.03076 5.0624C4.03076 5.03363 4.03968 5.00514 4.05701 4.97856C4.07434 4.95199 4.09974 4.92785 4.13175 4.90753Z" fill="#0EB0E3"/>
<path fill-rule="evenodd" clip-rule="evenodd" d="M4.13175 3.15753C4.16368 3.13716 4.20162 3.12099 4.24338 3.10997C4.28514 3.09894 4.32991 3.09326 4.37513 3.09326C4.42034 3.09326 4.46511 3.09894 4.50687 3.10997C4.54864 3.12099 4.58657 3.13716 4.6185 3.15753L8.50013 5.62809L12.3818 3.15753C12.4137 3.13719 12.4517 3.12106 12.4934 3.11005C12.5352 3.09904 12.5799 3.09338 12.6251 3.09338C12.6703 3.09338 12.7151 3.09904 12.7568 3.11005C12.7986 3.12106 12.8365 3.13719 12.8685 3.15753C12.9005 3.17787 12.9258 3.20201 12.9431 3.22859C12.9604 3.25516 12.9693 3.28364 12.9693 3.3124C12.9693 3.34117 12.9604 3.36965 12.9431 3.39622C12.9258 3.42279 12.9005 3.44694 12.8685 3.46728L8.7435 6.09228C8.71157 6.11265 8.67364 6.12881 8.63187 6.13984C8.59011 6.15087 8.54534 6.15654 8.50013 6.15654C8.45491 6.15654 8.41014 6.15087 8.36838 6.13984C8.32662 6.12881 8.28868 6.11265 8.25675 6.09228L4.13175 3.46728C4.09974 3.44696 4.07434 3.42282 4.05701 3.39624C4.03968 3.36967 4.03076 3.34118 4.03076 3.3124C4.03076 3.28363 4.03968 3.25514 4.05701 3.22856C4.07434 3.20199 4.09974 3.17785 4.13175 3.15753Z" fill="#0EB0E3"/>
</g>
<defs>
<filter id="filter0_d" x="-1" y="-3" width="19" height="15" filterUnits="userSpaceOnUse" color-interpolation-filters="sRGB">
<feFlood flood-opacity="0" result="BackgroundImageFix"/>
<feColorMatrix in="SourceAlpha" type="matrix" values="0 0 0 0 0 0 0 0 0 0 0 0 0 0 0 0 0 0 127 0"/>
<feOffset dy="-1"/>
<feGaussianBlur stdDeviation="2"/>
<feColorMatrix type="matrix" values="0 0 0 0 0.054902 0 0 0 0 0.690196 0 0 0 0 0.890196 0 0 0 0.25 0"/>
<feBlend mode="normal" in2="BackgroundImageFix" result="effect1_dropShadow"/>
<feBlend mode="normal" in="SourceGraphic" in2="effect1_dropShadow" result="shape"/>
</filter>
</defs>
</svg>
