<svg width="142" height="142" viewBox="0 0 142 142" fill="none" xmlns="http://www.w3.org/2000/svg">
<g clip-path="url(#clip0)">
<path d="M2.23547 26.2579H2.50373C13.4478 26.875 23.7862 31.4811 31.5636 39.2049C39.341 46.9286 44.0181 57.2346 44.7103 68.1734C44.6956 68.2755 44.6956 68.3792 44.7103 68.4813C44.7132 68.6786 44.7365 68.875 44.7798 69.0675C44.9099 69.6174 45.2222 70.1072 45.666 70.4571C46.1097 70.8071 46.6588 70.9966 47.224 70.9949H68.4962C69.0911 70.9933 69.6662 70.7808 70.1192 70.3952C70.5722 70.0095 70.8737 69.4757 70.9701 68.8887C70.9848 68.7566 70.9848 68.6233 70.9701 68.4913C70.9734 68.3002 70.95 68.1096 70.9006 67.925C70.1304 50.1834 62.7406 33.3743 50.1882 20.8118C37.6359 8.24926 20.832 0.845193 3.08993 0.0594507C2.90062 0.0184452 2.70737 -0.00154561 2.51367 -0.000158905C2.38139 -0.0103637 2.24852 -0.0103637 2.11624 -0.000158905C1.52056 0.095164 0.979031 0.401516 0.590505 0.862972C0.201979 1.32443 -0.00762532 1.91021 -4.55346e-05 2.51338V23.7642C-0.00115114 24.3825 0.226611 24.9794 0.639365 25.4398C1.05212 25.9002 1.62066 26.1916 2.23547 26.2579Z" fill="#FFE121"/>
<path d="M73.2356 26.2579H73.5138C84.4526 26.875 94.786 31.479 102.56 39.199C110.333 46.9191 115.008 57.22 115.7 68.1535C115.7 68.2528 115.7 68.3621 115.7 68.4615C115.698 68.659 115.722 68.856 115.77 69.0476C115.897 69.6046 116.211 70.1014 116.659 70.4556C117.107 70.8098 117.663 71.0001 118.234 70.9949H139.516C140.112 70.9917 140.687 70.7789 141.141 70.3937C141.596 70.0085 141.9 69.4757 142 68.8887C142.015 68.7566 142.015 68.6233 142 68.4913C142.006 68.3007 141.986 68.1101 141.94 67.925C141.167 50.1776 133.771 33.3643 121.211 20.8013C108.651 8.23829 91.8384 0.83777 74.0901 0.0594507C73.9038 0.0201233 73.7141 0.000147329 73.5237 -0.000158905C73.3915 -0.0103637 73.2586 -0.0103637 73.1263 -0.000158905C72.5357 0.0943962 71.9982 0.396419 71.6103 0.851656C71.2224 1.30689 71.0096 1.88551 71.01 2.48357V23.7642C71.0086 24.381 71.235 24.9766 71.6457 25.4368C72.0564 25.8969 72.6226 26.1893 73.2356 26.2579Z" fill="#FFE121"/>
<path d="M67.9099 141.93C50.1635 141.154 33.3523 133.756 20.7935 121.194C8.23473 108.632 0.840388 91.8203 0.0694671 74.0748C0.0256879 73.8925 0.00236083 73.7059 -8.22833e-05 73.5184C-0.0152721 73.3864 -0.0152721 73.2531 -8.22842e-05 73.121C0.0925625 72.5296 0.394061 71.991 0.849753 71.6028C1.30545 71.2145 1.88517 71.0024 2.48382 71.0049H23.7759C24.3932 71.004 24.9888 71.2321 25.4477 71.645C25.9065 72.0579 26.1958 72.6263 26.2598 73.2403C26.2598 73.3297 26.2598 73.4191 26.2598 73.5184C26.8793 84.4573 31.4857 94.7901 39.2079 102.563C46.9301 110.336 57.233 115.01 68.1683 115.702C68.2707 115.692 68.3739 115.692 68.4763 115.702C68.6703 115.705 68.8634 115.728 69.0525 115.772C69.6135 115.894 70.1161 116.203 70.4773 116.65C70.8386 117.096 71.037 117.652 71.0397 118.226V139.486C71.0357 140.082 70.8211 140.657 70.4338 141.11C70.0465 141.563 69.5114 141.864 68.9234 141.96C68.7947 141.975 68.6646 141.975 68.5359 141.96C68.3419 141.958 68.1486 141.935 67.9596 141.891L67.9099 141.93Z" fill="#FFE121"/>
<path d="M141.94 138.9C141.162 121.157 133.764 104.35 121.204 91.7927C108.644 79.2355 91.8341 71.8399 74.0899 71.0643C73.9008 71.0211 73.7077 70.9977 73.5137 70.9948C73.3816 70.9796 73.2483 70.9796 73.1162 70.9948C72.517 71.0864 71.9717 71.3931 71.5822 71.8575C71.1927 72.3219 70.9857 72.9123 71 73.5183V94.7591C70.9988 95.3775 71.2266 95.9743 71.6394 96.4348C72.0521 96.8952 72.6207 97.1866 73.2355 97.2528H73.5137C84.4524 97.8699 94.7859 102.474 102.56 110.194C110.333 117.914 115.008 128.215 115.7 139.148C115.7 139.258 115.7 139.357 115.7 139.466C115.698 139.661 115.722 139.854 115.77 140.043C115.89 140.603 116.198 141.105 116.642 141.466C117.087 141.828 117.641 142.026 118.214 142.03H139.496C140.093 142.026 140.67 141.812 141.124 141.425C141.579 141.037 141.882 140.502 141.98 139.913V139.834C141.98 139.735 141.98 139.625 141.98 139.526C141.996 139.316 141.983 139.106 141.94 138.9Z" fill="#FFE121"/>
</g>
<defs>
<clipPath id="clip0">
<rect width="142" height="142" fill="white"/>
</clipPath>
</defs>
</svg>
