<svg width="6" height="21" viewBox="0 0 6 21" fill="none" xmlns="http://www.w3.org/2000/svg">
<path d="M2.625 13.125C4.07475 13.125 5.25 11.9497 5.25 10.5C5.25 9.05025 4.07475 7.875 2.625 7.875C1.17525 7.875 0 9.05025 0 10.5C0 11.9497 1.17525 13.125 2.625 13.125Z" fill="#151515"/>
<path d="M2.625 21C4.07475 21 5.25 19.8247 5.25 18.375C5.25 16.9253 4.07475 15.75 2.625 15.75C1.17525 15.75 0 16.9253 0 18.375C0 19.8247 1.17525 21 2.625 21Z" fill="#151515"/>
<path d="M2.625 5.25C4.07475 5.25 5.25 4.07475 5.25 2.625C5.25 1.17525 4.07475 0 2.625 0C1.17525 0 0 1.17525 0 2.625C0 4.07475 1.17525 5.25 2.625 5.25Z" fill="#151515"/>
</svg>
