<svg width="23" height="23" viewBox="0 0 23 23" fill="none" xmlns="http://www.w3.org/2000/svg">
<rect width="23" height="23" rx="3" fill="#8950FC"/>
<path d="M16.5417 11.0417C16.2887 11.0417 16.0833 11.247 16.0833 11.5C16.0833 14.0273 14.0273 16.0833 11.5 16.0833C8.97275 16.0833 6.91667 14.0273 6.91667 11.5C6.91667 8.97275 8.97275 6.91667 11.5 6.91667C12.7304 6.91667 13.8854 7.39746 14.7526 8.27058C14.9306 8.45025 15.221 8.4514 15.4006 8.27288C15.5803 8.09458 15.5812 7.80446 15.4029 7.62479C14.3625 6.57704 12.9763 6 11.5 6C8.46721 6 6 8.46721 6 11.5C6 14.5328 8.46721 17 11.5 17C14.5328 17 17 14.5328 17 11.5C17 11.247 16.7947 11.0417 16.5417 11.0417Z" fill="white"/>
<path d="M13.333 11.0418H11.958V9.66683C11.958 9.41383 11.7527 9.2085 11.4997 9.2085C11.2467 9.2085 11.0413 9.41383 11.0413 9.66683V11.0418H9.66634C9.41334 11.0418 9.20801 11.2472 9.20801 11.5002C9.20801 11.7532 9.41334 11.9585 9.66634 11.9585H11.0413V13.3335C11.0413 13.5865 11.2467 13.7918 11.4997 13.7918C11.7527 13.7918 11.958 13.5865 11.958 13.3335V11.9585H13.333C13.586 11.9585 13.7913 11.7532 13.7913 11.5002C13.7913 11.2472 13.586 11.0418 13.333 11.0418Z" fill="white" fill-opacity="0.5"/>
</svg>
