<svg width="21" height="20" viewBox="0 0 21 20" fill="none" xmlns="http://www.w3.org/2000/svg">
<path d="M20.3429 9.37545H12.0307C11.6685 9.37545 11.3745 9.09546 11.3745 8.75047C11.3745 8.40547 11.6685 8.12549 12.0307 8.12549H20.3429C20.7051 8.12549 20.9991 8.40547 20.9991 8.75047C20.9991 9.09546 20.7051 9.37545 20.3429 9.37545Z" fill="white"/>
<path d="M17.0623 12.5004C16.8942 12.5004 16.7263 12.4395 16.5985 12.3171C16.3422 12.0728 16.3422 11.677 16.5985 11.4329L19.416 8.74973L16.5985 6.06642C16.3422 5.82229 16.3422 5.42649 16.5985 5.18236C16.855 4.93808 17.2705 4.93808 17.5268 5.18236L20.808 8.30725C21.0643 8.55139 21.0643 8.94719 20.808 9.19132L17.5268 12.3162C17.3982 12.4395 17.2303 12.5004 17.0623 12.5004Z" fill="white"/>
<path d="M6.99974 19.9993C6.81245 19.9993 6.63478 19.9743 6.45727 19.9219L1.19164 18.2511C0.475183 18.0127 0 17.3769 0 16.6661V1.66667C0 0.747503 0.78487 0 1.74998 0C1.9371 0 2.11477 0.0250236 2.29244 0.077512L7.55791 1.74829C8.27453 1.98663 8.74956 2.62244 8.74956 3.33317V18.3327C8.74956 19.2519 7.96484 19.9993 6.99974 19.9993ZM1.74998 1.24996C1.50933 1.24996 1.31244 1.43748 1.31244 1.66667V16.6661C1.31244 16.8436 1.43757 17.0085 1.61604 17.0677L6.857 18.7311C6.89464 18.7427 6.94367 18.7493 6.99974 18.7493C7.24038 18.7493 7.43712 18.5619 7.43712 18.3327V3.33317C7.43712 3.15572 7.31199 2.99077 7.13352 2.93157L1.89257 1.26827C1.85492 1.25667 1.80589 1.24996 1.74998 1.24996Z" fill="white"/>
<path d="M13.3431 6.66698C12.9809 6.66698 12.6869 6.387 12.6869 6.04201V2.29213C12.6869 1.71797 12.1961 1.25045 11.5933 1.25045H1.74998C1.38774 1.25045 1.09375 0.970458 1.09375 0.625468C1.09375 0.280478 1.38774 0.000488281 1.74998 0.000488281H11.5933C12.9206 0.000488281 13.9993 1.02798 13.9993 2.29213V6.04201C13.9993 6.387 13.7053 6.66698 13.3431 6.66698Z" fill="white"/>
<path d="M11.5932 17.4996H8.09324C7.73099 17.4996 7.43701 17.2196 7.43701 16.8746C7.43701 16.5296 7.73099 16.2497 8.09324 16.2497H11.5932C12.1961 16.2497 12.6868 15.7822 12.6868 15.2079V11.4581C12.6868 11.1131 12.9808 10.8331 13.343 10.8331C13.7052 10.8331 13.9992 11.1131 13.9992 11.4581V15.2079C13.9992 16.4722 12.9205 17.4996 11.5932 17.4996Z" fill="white"/>
</svg>
