<svg width="18" height="20" viewBox="0 0 18 20" fill="none" xmlns="http://www.w3.org/2000/svg">
<path d="M11.4579 13.5684C11.3031 13.9722 10.8437 14.1766 10.4321 14.0247C9.79726 13.7906 9.12783 13.6719 8.44248 13.6719H7.24779C4.12969 13.6719 1.59292 16.1602 1.59292 19.2188C1.59292 19.6502 1.23635 20 0.79646 20C0.356575 20 0 19.6502 0 19.2188C0 15.2986 3.25135 12.1094 7.24779 12.1094H8.44248C9.31994 12.1094 10.178 12.2617 10.9927 12.5621C11.4044 12.714 11.6127 13.1645 11.4579 13.5684ZM13.1416 5.27344C13.1416 8.18121 10.7299 10.5469 7.76549 10.5469C4.8011 10.5469 2.38938 8.18121 2.38938 5.27344C2.38938 2.36566 4.8011 0 7.76549 0C10.7299 0 13.1416 2.36566 13.1416 5.27344ZM11.5487 5.27344C11.5487 3.22723 9.85154 1.5625 7.76549 1.5625C5.67944 1.5625 3.9823 3.22723 3.9823 5.27344C3.9823 7.31965 5.67944 8.98438 7.76549 8.98438C9.85154 8.98438 11.5487 7.31965 11.5487 5.27344ZM18 16.6536C18 15.4331 16.8934 14.4401 15.5332 14.4401C14.955 14.4401 14.5354 14.1663 14.5354 13.7891C14.5354 13.4301 14.8302 13.138 15.1925 13.138C15.5578 13.138 16.0336 13.1771 16.7932 13.4668C17.2031 13.6232 17.6647 13.424 17.8241 13.0219C17.9836 12.6198 17.7805 12.167 17.3705 12.0106C16.9751 11.8598 16.6304 11.7609 16.3274 11.6957V11.0938C16.3274 10.6623 15.9709 10.3125 15.531 10.3125C15.0911 10.3125 14.7345 10.6623 14.7345 11.0938V11.6217C13.7127 11.8304 12.9425 12.7229 12.9425 13.7891C12.9425 15.051 14.0562 16.0026 15.5332 16.0026C16.0069 16.0026 16.4071 16.3007 16.4071 16.6537C16.4071 17.0005 16.0783 17.3047 15.7035 17.3047C15.4111 17.3047 14.6774 17.1995 13.9535 16.9173C13.5448 16.758 13.0817 16.9537 12.9192 17.3546C12.7567 17.7556 12.9563 18.2099 13.3651 18.3693C13.8263 18.5491 14.3075 18.6774 14.7345 18.7587V19.2188C14.7345 19.6502 15.0911 20 15.531 20C15.9709 20 16.3274 19.6502 16.3274 19.2188V18.7825C16.6916 18.682 17.0282 18.4941 17.3086 18.2289C17.7545 17.8075 18 17.248 18 16.6536Z" fill="white"/>
</svg>
