<svg width="26" height="20" viewBox="0 0 26 20" fill="none" xmlns="http://www.w3.org/2000/svg">
<path d="M21.2261 6.6266C20.0486 1.93606 15.2918 -0.911862 10.6012 0.265575C6.93567 1.18574 4.27407 4.35382 3.99984 8.12309C1.39715 8.55231 -0.364827 11.0101 0.0643859 13.6128C0.445936 15.9266 2.45085 17.6211 4.79587 17.6118H8.77605V16.0198H4.79587C3.03733 16.0198 1.61173 14.5942 1.61173 12.8356C1.61173 11.0771 3.03733 9.65148 4.79587 9.65148C5.23553 9.65148 5.59191 9.29511 5.59191 8.85545C5.58793 4.8987 8.79232 1.68789 12.7491 1.68396C16.1742 1.68053 19.1227 4.10197 19.7852 7.46238C19.8507 7.79791 20.1229 8.05424 20.4619 8.09921C22.6381 8.40912 24.151 10.4245 23.8412 12.6007C23.5629 14.5549 21.8944 16.0099 19.9206 16.0198H16.7364V17.6118H19.9206C22.998 17.6025 25.4852 15.1002 25.4759 12.0227C25.4681 9.46098 23.7147 7.23452 21.2261 6.6266Z" fill="white"/>
<path d="M12.191 9.88225L9.00684 13.0664L10.1292 14.1888L11.9601 12.3659V19.9999H13.5522V12.3659L15.3751 14.1888L16.4975 13.0664L13.3134 9.88225C13.0029 9.57359 12.5015 9.57359 12.191 9.88225Z" fill="white"/>
</svg>
